<svg width="90" height="91" viewBox="0 0 90 91" fill="none" xmlns="http://www.w3.org/2000/svg">
<path d="M80 1C84.9706 1 89 5.02944 89 10V82.5527L88.9863 83C88.7123 87.4301 84.3943 90.4973 80.1211 89.2969L79.6943 89.1621L47.3057 77.8633C45.906 77.375 44.3898 77.3442 42.9756 77.7715L42.6943 77.8633L10.3057 89.1621C5.75571 90.7493 1.00006 87.3716 1 82.5527V10C1 5.02944 5.02944 1 10 1H80Z" fill="url(#paint0_linear_4357_45181)" stroke="#002648" stroke-width="2"/>
<path d="M10 3H79.9971C83.8629 3.00012 86.9969 6.13419 86.9971 10L87 82.5518L86.9902 82.8721C86.7943 86.0361 83.7102 88.2262 80.6582 87.3691L80.3525 87.2734L47.9658 75.9746C46.1664 75.347 44.2175 75.3082 42.3994 75.8574L42.0371 75.9746L9.65039 87.2734C6.40052 88.4072 3.00316 85.9947 3.00293 82.5527L3 10L3.00977 9.63965C3.19731 5.94125 6.255 3.00016 10 3Z" fill="url(#paint1_linear_4357_45181)" stroke="white" stroke-width="2"/>
<path d="M10.002 3H79.998C83.7428 3 86.8012 5.94051 86.9893 9.63867L86.998 9.99902L87 19H3.00391L3.00195 10.001C3.00141 6.13463 6.13556 3 10.002 3Z" fill="#002648" stroke="white" stroke-width="2"/>
<path d="M13.6328 63V61.1309L19.2617 60.8516V34.3828L13.0742 35.3066V33.502L21.8398 31.6328V60.8516L27.4473 61.1309V63H13.6328ZM41.4121 63.4512C38.3613 63.4512 35.9694 62.3626 34.2363 60.1855C32.5176 57.9941 31.6582 54.8861 31.6582 50.8613V43.8789C31.6582 39.8398 32.5104 36.7318 34.2148 34.5547C35.9336 32.3633 38.3184 31.2676 41.3691 31.2676C44.4199 31.2676 46.8047 32.3633 48.5234 34.5547C50.2422 36.7318 51.1016 39.8398 51.1016 43.8789V50.8613C51.1016 54.9004 50.2493 58.0085 48.5449 60.1855C46.8405 62.3626 44.4629 63.4512 41.4121 63.4512ZM41.4121 61.3027C43.7324 61.3027 45.4941 60.429 46.6973 58.6816C47.9147 56.9199 48.5234 54.4349 48.5234 51.2266V43.4492C48.5234 40.2409 47.9147 37.7702 46.6973 36.0371C45.4798 34.304 43.7038 33.4375 41.3691 33.4375C39.0488 33.4375 37.2799 34.304 36.0625 36.0371C34.8451 37.7702 34.2363 40.2409 34.2363 43.4492V51.2266C34.2363 54.4206 34.8522 56.8984 36.084 58.6602C37.3158 60.4219 39.0918 61.3027 41.4121 61.3027ZM66.291 63.4512C63.2402 63.4512 60.8483 62.3626 59.1152 60.1855C57.3965 57.9941 56.5371 54.8861 56.5371 50.8613V43.8789C56.5371 39.8398 57.3893 36.7318 59.0938 34.5547C60.8125 32.3633 63.1973 31.2676 66.248 31.2676C69.2988 31.2676 71.6836 32.3633 73.4023 34.5547C75.1211 36.7318 75.9805 39.8398 75.9805 43.8789V50.8613C75.9805 54.9004 75.1283 58.0085 73.4238 60.1855C71.7194 62.3626 69.3418 63.4512 66.291 63.4512ZM66.291 61.3027C68.6113 61.3027 70.373 60.429 71.5762 58.6816C72.7936 56.9199 73.4023 54.4349 73.4023 51.2266V43.4492C73.4023 40.2409 72.7936 37.7702 71.5762 36.0371C70.3587 34.304 68.5827 33.4375 66.248 33.4375C63.9277 33.4375 62.1589 34.304 60.9414 36.0371C59.724 37.7702 59.1152 40.2409 59.1152 43.4492V51.2266C59.1152 54.4206 59.7311 56.8984 60.9629 58.6602C62.1947 60.4219 63.9707 61.3027 66.291 61.3027Z" fill="#002648"/>
<path d="M38.631 6.835V8.863H36.187V16H33.639V8.863H31.221V6.835H38.631ZM44.6177 16.091C43.7597 16.091 42.971 15.8917 42.2517 15.493C41.5324 15.0857 40.9604 14.5267 40.5357 13.816C40.1197 13.0967 39.9117 12.2863 39.9117 11.385C39.9117 10.4837 40.1197 9.67767 40.5357 8.967C40.9604 8.24767 41.5324 7.68867 42.2517 7.29C42.971 6.89133 43.7597 6.692 44.6177 6.692C45.4844 6.692 46.273 6.89133 46.9837 7.29C47.703 7.68867 48.2707 8.24767 48.6867 8.967C49.1027 9.67767 49.3107 10.4837 49.3107 11.385C49.3107 12.2863 49.1027 13.0967 48.6867 13.816C48.2707 14.5267 47.703 15.0857 46.9837 15.493C46.2644 15.8917 45.4757 16.091 44.6177 16.091ZM44.6177 13.725C45.2677 13.725 45.779 13.5127 46.1517 13.088C46.533 12.6633 46.7237 12.0957 46.7237 11.385C46.7237 10.657 46.533 10.085 46.1517 9.669C45.779 9.24433 45.2677 9.032 44.6177 9.032C43.959 9.032 43.4434 9.24433 43.0707 9.669C42.698 10.085 42.5117 10.657 42.5117 11.385C42.5117 12.1043 42.698 12.6763 43.0707 13.101C43.4434 13.517 43.959 13.725 44.6177 13.725ZM58.3471 9.89C58.3471 10.4447 58.2171 10.9517 57.9571 11.411C57.7058 11.8617 57.3201 12.2257 56.8001 12.503C56.2888 12.7717 55.6605 12.906 54.9151 12.906H53.6541V16H51.1061V6.835H54.9151C55.6518 6.835 56.2758 6.965 56.7871 7.225C57.3071 7.485 57.6971 7.84467 57.9571 8.304C58.2171 8.76333 58.3471 9.292 58.3471 9.89ZM54.6681 10.878C55.3875 10.878 55.7471 10.5487 55.7471 9.89C55.7471 9.22267 55.3875 8.889 54.6681 8.889H53.6541V10.878H54.6681Z" fill="white"/>
<defs>
<linearGradient id="paint0_linear_4357_45181" x1="30.9509" y1="12.7856" x2="65.8475" y2="73.2017" gradientUnits="userSpaceOnUse">
<stop offset="0.574594" stop-color="#EBF5FF"/>
<stop offset="0.593361" stop-color="#D6EBFF"/>
</linearGradient>
<linearGradient id="paint1_linear_4357_45181" x1="41.7201" y1="32" x2="66.6909" y2="72.7741" gradientUnits="userSpaceOnUse">
<stop offset="0.574594" stop-color="#EBF5FF"/>
<stop offset="0.574694" stop-color="#D6EBFF"/>
</linearGradient>
</defs>
</svg>
