<svg width="90" height="91" viewBox="0 0 90 91" fill="none" xmlns="http://www.w3.org/2000/svg">
<path d="M80 1C84.9706 1 89 5.02944 89 10V82.5527L88.9863 83C88.7123 87.4301 84.3943 90.4973 80.1211 89.2969L79.6943 89.1621L47.3057 77.8633C45.906 77.375 44.3898 77.3442 42.9756 77.7715L42.6943 77.8633L10.3057 89.1621C5.75571 90.7493 1.00006 87.3716 1 82.5527V10C1 5.02944 5.02944 1 10 1H80Z" fill="url(#paint0_linear_4357_45175)" stroke="#002648" stroke-width="2"/>
<path d="M10 3H79.9971C83.8629 3.00012 86.9969 6.13419 86.9971 10L87 82.5518L86.9902 82.8721C86.7943 86.0361 83.7102 88.2262 80.6582 87.3691L80.3525 87.2734L47.9658 75.9746C46.1664 75.347 44.2175 75.3082 42.3994 75.8574L42.0371 75.9746L9.65039 87.2734C6.40052 88.4072 3.00316 85.9947 3.00293 82.5527L3 10L3.00977 9.63965C3.19731 5.94125 6.255 3.00016 10 3Z" fill="url(#paint1_linear_4357_45175)" stroke="white" stroke-width="2"/>
<path d="M10.002 3H79.998C83.7428 3 86.8012 5.94051 86.9893 9.63867L86.998 9.99902L87 19H3.00391L3.00195 10.001C3.00141 6.13463 6.13556 3 10.002 3Z" fill="#002648" stroke="white" stroke-width="2"/>
<path d="M20.7803 62.4307C19.126 62.4307 17.6494 62.1299 16.3506 61.5283C15.0518 60.9131 14.0332 59.9971 13.2949 58.7803C12.5703 57.5635 12.2285 56.0596 12.2695 54.2686L12.3105 54.1455H14.5049C14.5049 56.1553 15.0723 57.7002 16.207 58.7803C17.3555 59.8467 18.8799 60.3799 20.7803 60.3799C22.9951 60.3799 24.6494 59.71 25.7432 58.3701C26.8506 57.0166 27.4043 55.0684 27.4043 52.5254C27.4043 50.2832 26.8506 48.4922 25.7432 47.1523C24.6357 45.7988 23.0977 45.1221 21.1289 45.1221C19.2148 45.1221 17.752 45.4297 16.7402 46.0449C15.7422 46.6602 15.0244 47.583 14.5869 48.8135L12.5771 48.4648L14.2383 32.1406H29.2295V36.9805H27.2402L27.0557 34.376H16.3506L15.2432 45.0811C15.7354 44.6299 16.2549 44.2471 16.8018 43.9326C17.3623 43.6045 18.0117 43.3516 18.75 43.1738C19.4883 42.9824 20.3633 42.8799 21.375 42.8662C23.0703 42.8252 24.5537 43.2012 25.8252 43.9941C27.1104 44.7734 28.1084 45.8877 28.8193 47.3369C29.5303 48.7861 29.8857 50.502 29.8857 52.4844C29.8857 54.4941 29.5439 56.2441 28.8604 57.7344C28.1904 59.2246 27.1787 60.3799 25.8252 61.2002C24.4854 62.0205 22.8037 62.4307 20.7803 62.4307ZM44.0156 62.4307C41.1035 62.4307 38.8203 61.3916 37.166 59.3135C35.5254 57.2217 34.7051 54.2549 34.7051 50.4131V43.748C34.7051 39.8926 35.5186 36.9258 37.1455 34.8477C38.7861 32.7559 41.0625 31.71 43.9746 31.71C46.8867 31.71 49.1631 32.7559 50.8037 34.8477C52.4443 36.9258 53.2646 39.8926 53.2646 43.748V50.4131C53.2646 54.2686 52.4512 57.2354 50.8242 59.3135C49.1973 61.3916 46.9277 62.4307 44.0156 62.4307ZM44.0156 60.3799C46.2305 60.3799 47.9121 59.5459 49.0605 57.8779C50.2227 56.1963 50.8037 53.8242 50.8037 50.7617V43.3379C50.8037 40.2754 50.2227 37.917 49.0605 36.2627C47.8984 34.6084 46.2031 33.7812 43.9746 33.7812C41.7598 33.7812 40.0713 34.6084 38.9092 36.2627C37.7471 37.917 37.166 40.2754 37.166 43.3379V50.7617C37.166 53.8105 37.7539 56.1758 38.9297 57.8574C40.1055 59.5391 41.8008 60.3799 44.0156 60.3799ZM67.7637 62.4307C64.8516 62.4307 62.5684 61.3916 60.9141 59.3135C59.2734 57.2217 58.4531 54.2549 58.4531 50.4131V43.748C58.4531 39.8926 59.2666 36.9258 60.8936 34.8477C62.5342 32.7559 64.8105 31.71 67.7227 31.71C70.6348 31.71 72.9111 32.7559 74.5518 34.8477C76.1924 36.9258 77.0127 39.8926 77.0127 43.748V50.4131C77.0127 54.2686 76.1992 57.2354 74.5723 59.3135C72.9453 61.3916 70.6758 62.4307 67.7637 62.4307ZM67.7637 60.3799C69.9785 60.3799 71.6602 59.5459 72.8086 57.8779C73.9707 56.1963 74.5518 53.8242 74.5518 50.7617V43.3379C74.5518 40.2754 73.9707 37.917 72.8086 36.2627C71.6465 34.6084 69.9512 33.7812 67.7227 33.7812C65.5078 33.7812 63.8193 34.6084 62.6572 36.2627C61.4951 37.917 60.9141 40.2754 60.9141 43.3379V50.7617C60.9141 53.8105 61.502 56.1758 62.6777 57.8574C63.8535 59.5391 65.5488 60.3799 67.7637 60.3799Z" fill="#002648"/>
<path d="M38.631 6.835V8.863H36.187V16H33.639V8.863H31.221V6.835H38.631ZM44.6177 16.091C43.7597 16.091 42.971 15.8917 42.2517 15.493C41.5324 15.0857 40.9604 14.5267 40.5357 13.816C40.1197 13.0967 39.9117 12.2863 39.9117 11.385C39.9117 10.4837 40.1197 9.67767 40.5357 8.967C40.9604 8.24767 41.5324 7.68867 42.2517 7.29C42.971 6.89133 43.7597 6.692 44.6177 6.692C45.4844 6.692 46.273 6.89133 46.9837 7.29C47.703 7.68867 48.2707 8.24767 48.6867 8.967C49.1027 9.67767 49.3107 10.4837 49.3107 11.385C49.3107 12.2863 49.1027 13.0967 48.6867 13.816C48.2707 14.5267 47.703 15.0857 46.9837 15.493C46.2644 15.8917 45.4757 16.091 44.6177 16.091ZM44.6177 13.725C45.2677 13.725 45.779 13.5127 46.1517 13.088C46.533 12.6633 46.7237 12.0957 46.7237 11.385C46.7237 10.657 46.533 10.085 46.1517 9.669C45.779 9.24433 45.2677 9.032 44.6177 9.032C43.959 9.032 43.4434 9.24433 43.0707 9.669C42.698 10.085 42.5117 10.657 42.5117 11.385C42.5117 12.1043 42.698 12.6763 43.0707 13.101C43.4434 13.517 43.959 13.725 44.6177 13.725ZM58.3471 9.89C58.3471 10.4447 58.2171 10.9517 57.9571 11.411C57.7058 11.8617 57.3201 12.2257 56.8001 12.503C56.2888 12.7717 55.6605 12.906 54.9151 12.906H53.6541V16H51.1061V6.835H54.9151C55.6518 6.835 56.2758 6.965 56.7871 7.225C57.3071 7.485 57.6971 7.84467 57.9571 8.304C58.2171 8.76333 58.3471 9.292 58.3471 9.89ZM54.6681 10.878C55.3875 10.878 55.7471 10.5487 55.7471 9.89C55.7471 9.22267 55.3875 8.889 54.6681 8.889H53.6541V10.878H54.6681Z" fill="white"/>
<defs>
<linearGradient id="paint0_linear_4357_45175" x1="30.9509" y1="12.7856" x2="65.8475" y2="73.2017" gradientUnits="userSpaceOnUse">
<stop offset="0.574594" stop-color="#EBF5FF"/>
<stop offset="0.593361" stop-color="#D6EBFF"/>
</linearGradient>
<linearGradient id="paint1_linear_4357_45175" x1="41.7201" y1="32" x2="66.6909" y2="72.7741" gradientUnits="userSpaceOnUse">
<stop offset="0.574594" stop-color="#EBF5FF"/>
<stop offset="0.574694" stop-color="#D6EBFF"/>
</linearGradient>
</defs>
</svg>
