<svg width="90" height="91" viewBox="0 0 90 91" fill="none" xmlns="http://www.w3.org/2000/svg">
<path d="M80 1C84.9706 1 89 5.02944 89 10V82.5527L88.9863 83C88.7123 87.4301 84.3943 90.4973 80.1211 89.2969L79.6943 89.1621L47.3057 77.8633C45.906 77.375 44.3898 77.3442 42.9756 77.7715L42.6943 77.8633L10.3057 89.1621C5.75571 90.7493 1.00006 87.3716 1 82.5527V10C1 5.02944 5.02944 1 10 1H80Z" fill="url(#paint0_linear_4357_45193)" stroke="#002648" stroke-width="2"/>
<path d="M10 3H79.9971C83.8629 3.00012 86.9969 6.13419 86.9971 10L87 82.5518L86.9902 82.8721C86.7943 86.0361 83.7102 88.2262 80.6582 87.3691L80.3525 87.2734L47.9658 75.9746C46.1664 75.347 44.2175 75.3082 42.3994 75.8574L42.0371 75.9746L9.65039 87.2734C6.40052 88.4072 3.00316 85.9947 3.00293 82.5527L3 10L3.00977 9.63965C3.19731 5.94125 6.255 3.00016 10 3Z" fill="url(#paint1_linear_4357_45193)" stroke="white" stroke-width="2"/>
<path d="M10.002 3H79.998C83.7428 3 86.8012 5.94051 86.9893 9.63867L86.998 9.99902L87 19H3.00391L3.00195 10.001C3.00141 6.13463 6.13556 3 10.002 3Z" fill="#002648" stroke="white" stroke-width="2"/>
<path d="M24.3516 65V62.9609L30.4922 62.6562V33.7812L23.7422 34.7891V32.8203L33.3047 30.7812V62.6562L39.4219 62.9609V65H24.3516ZM54.6562 65.4922C51.3281 65.4922 48.7188 64.3047 46.8281 61.9297C44.9531 59.5391 44.0156 56.1484 44.0156 51.7578V44.1406C44.0156 39.7344 44.9453 36.3438 46.8047 33.9688C48.6797 31.5781 51.2812 30.3828 54.6094 30.3828C57.9375 30.3828 60.5391 31.5781 62.4141 33.9688C64.2891 36.3438 65.2266 39.7344 65.2266 44.1406V51.7578C65.2266 56.1641 64.2969 59.5547 62.4375 61.9297C60.5781 64.3047 57.9844 65.4922 54.6562 65.4922ZM54.6562 63.1484C57.1875 63.1484 59.1094 62.1953 60.4219 60.2891C61.75 58.3672 62.4141 55.6562 62.4141 52.1562V43.6719C62.4141 40.1719 61.75 37.4766 60.4219 35.5859C59.0938 33.6953 57.1562 32.75 54.6094 32.75C52.0781 32.75 50.1484 33.6953 48.8203 35.5859C47.4922 37.4766 46.8281 40.1719 46.8281 43.6719V52.1562C46.8281 55.6406 47.5 58.3438 48.8438 60.2656C50.1875 62.1875 52.125 63.1484 54.6562 63.1484Z" fill="#002648"/>
<path d="M38.631 6.835V8.863H36.187V16H33.639V8.863H31.221V6.835H38.631ZM44.6177 16.091C43.7597 16.091 42.971 15.8917 42.2517 15.493C41.5324 15.0857 40.9604 14.5267 40.5357 13.816C40.1197 13.0967 39.9117 12.2863 39.9117 11.385C39.9117 10.4837 40.1197 9.67767 40.5357 8.967C40.9604 8.24767 41.5324 7.68867 42.2517 7.29C42.971 6.89133 43.7597 6.692 44.6177 6.692C45.4844 6.692 46.273 6.89133 46.9837 7.29C47.703 7.68867 48.2707 8.24767 48.6867 8.967C49.1027 9.67767 49.3107 10.4837 49.3107 11.385C49.3107 12.2863 49.1027 13.0967 48.6867 13.816C48.2707 14.5267 47.703 15.0857 46.9837 15.493C46.2644 15.8917 45.4757 16.091 44.6177 16.091ZM44.6177 13.725C45.2677 13.725 45.779 13.5127 46.1517 13.088C46.533 12.6633 46.7237 12.0957 46.7237 11.385C46.7237 10.657 46.533 10.085 46.1517 9.669C45.779 9.24433 45.2677 9.032 44.6177 9.032C43.959 9.032 43.4434 9.24433 43.0707 9.669C42.698 10.085 42.5117 10.657 42.5117 11.385C42.5117 12.1043 42.698 12.6763 43.0707 13.101C43.4434 13.517 43.959 13.725 44.6177 13.725ZM58.3471 9.89C58.3471 10.4447 58.2171 10.9517 57.9571 11.411C57.7058 11.8617 57.3201 12.2257 56.8001 12.503C56.2888 12.7717 55.6605 12.906 54.9151 12.906H53.6541V16H51.1061V6.835H54.9151C55.6518 6.835 56.2758 6.965 56.7871 7.225C57.3071 7.485 57.6971 7.84467 57.9571 8.304C58.2171 8.76333 58.3471 9.292 58.3471 9.89ZM54.6681 10.878C55.3875 10.878 55.7471 10.5487 55.7471 9.89C55.7471 9.22267 55.3875 8.889 54.6681 8.889H53.6541V10.878H54.6681Z" fill="white"/>
<defs>
<linearGradient id="paint0_linear_4357_45193" x1="30.9509" y1="12.7856" x2="65.8475" y2="73.2017" gradientUnits="userSpaceOnUse">
<stop offset="0.574594" stop-color="#EBF5FF"/>
<stop offset="0.593361" stop-color="#D6EBFF"/>
</linearGradient>
<linearGradient id="paint1_linear_4357_45193" x1="41.7201" y1="32" x2="66.6909" y2="72.7741" gradientUnits="userSpaceOnUse">
<stop offset="0.574594" stop-color="#EBF5FF"/>
<stop offset="0.574694" stop-color="#D6EBFF"/>
</linearGradient>
</defs>
</svg>
