<svg width="90" height="91" viewBox="0 0 90 91" fill="none" xmlns="http://www.w3.org/2000/svg">
<path d="M80 1C84.9706 1 89 5.02944 89 10V82.5527L88.9863 83C88.7123 87.4301 84.3943 90.4973 80.1211 89.2969L79.6943 89.1621L47.3057 77.8633C45.906 77.375 44.3898 77.3442 42.9756 77.7715L42.6943 77.8633L10.3057 89.1621C5.75571 90.7493 1.00006 87.3716 1 82.5527V10C1 5.02944 5.02944 1 10 1H80Z" fill="url(#paint0_linear_4665_69949)" stroke="#002648" stroke-width="2"/>
<path d="M10 3H79.9971C83.8629 3.00012 86.9969 6.13419 86.9971 10L87 82.5518L86.9902 82.8721C86.7943 86.0361 83.7102 88.2262 80.6582 87.3691L80.3525 87.2734L47.9658 75.9746C46.1664 75.347 44.2175 75.3082 42.3994 75.8574L42.0371 75.9746L9.65039 87.2734C6.40052 88.4072 3.00316 85.9947 3.00293 82.5527L3 10L3.00977 9.63965C3.19731 5.94125 6.255 3.00016 10 3Z" fill="url(#paint1_linear_4665_69949)" stroke="white" stroke-width="2"/>
<path d="M10.002 3H79.998C83.7428 3 86.8012 5.94051 86.9893 9.63867L86.998 9.99902L87 19H3.00391L3.00195 10.001C3.00141 6.13463 6.13556 3 10.002 3Z" fill="#002648" stroke="white" stroke-width="2"/>
<path d="M9.2627 56V54.8955L12.5889 54.7305V39.0898L8.93262 39.6357V38.5693L14.1123 37.4648V54.7305L17.4258 54.8955V56H9.2627ZM25.6777 56.2666C23.875 56.2666 22.4616 55.6234 21.4375 54.3369C20.4219 53.042 19.9141 51.2054 19.9141 48.8271V44.7012C19.9141 42.3145 20.4176 40.4779 21.4248 39.1914C22.4404 37.8965 23.8496 37.249 25.6523 37.249C27.4551 37.249 28.8643 37.8965 29.8799 39.1914C30.8955 40.4779 31.4033 42.3145 31.4033 44.7012V48.8271C31.4033 51.2139 30.8997 53.0505 29.8926 54.3369C28.8854 55.6234 27.4805 56.2666 25.6777 56.2666ZM25.6777 54.9971C27.0488 54.9971 28.0898 54.4808 28.8008 53.4482C29.5202 52.4072 29.8799 50.9388 29.8799 49.043V44.4473C29.8799 42.5514 29.5202 41.0915 28.8008 40.0674C28.0814 39.0433 27.0319 38.5312 25.6523 38.5312C24.2812 38.5312 23.236 39.0433 22.5166 40.0674C21.7972 41.0915 21.4375 42.5514 21.4375 44.4473V49.043C21.4375 50.9303 21.8014 52.3945 22.5293 53.4355C23.2572 54.4766 24.3066 54.9971 25.6777 54.9971ZM34.7422 59.5674L33.8408 58.9072C34.2386 58.3486 34.5306 57.7943 34.7168 57.2441C34.9115 56.694 35.0088 56.0889 35.0088 55.4287V53.6133H36.5322V55.3906C36.5322 56.1777 36.3714 56.9395 36.0498 57.6758C35.7367 58.4121 35.3008 59.0426 34.7422 59.5674ZM45.3809 56.2666C43.5781 56.2666 42.1647 55.6234 41.1406 54.3369C40.125 53.042 39.6172 51.2054 39.6172 48.8271V44.7012C39.6172 42.3145 40.1208 40.4779 41.1279 39.1914C42.1436 37.8965 43.5527 37.249 45.3555 37.249C47.1582 37.249 48.5674 37.8965 49.583 39.1914C50.5986 40.4779 51.1064 42.3145 51.1064 44.7012V48.8271C51.1064 51.2139 50.6029 53.0505 49.5957 54.3369C48.5885 55.6234 47.1836 56.2666 45.3809 56.2666ZM45.3809 54.9971C46.752 54.9971 47.793 54.4808 48.5039 53.4482C49.2233 52.4072 49.583 50.9388 49.583 49.043V44.4473C49.583 42.5514 49.2233 41.0915 48.5039 40.0674C47.7845 39.0433 46.735 38.5312 45.3555 38.5312C43.9844 38.5312 42.9391 39.0433 42.2197 40.0674C41.5003 41.0915 41.1406 42.5514 41.1406 44.4473V49.043C41.1406 50.9303 41.5046 52.3945 42.2324 53.4355C42.9603 54.4766 44.0098 54.9971 45.3809 54.9971ZM60.082 56.2666C58.2793 56.2666 56.8659 55.6234 55.8418 54.3369C54.8262 53.042 54.3184 51.2054 54.3184 48.8271V44.7012C54.3184 42.3145 54.8219 40.4779 55.8291 39.1914C56.8447 37.8965 58.2539 37.249 60.0566 37.249C61.8594 37.249 63.2686 37.8965 64.2842 39.1914C65.2998 40.4779 65.8076 42.3145 65.8076 44.7012V48.8271C65.8076 51.2139 65.304 53.0505 64.2969 54.3369C63.2897 55.6234 61.8848 56.2666 60.082 56.2666ZM60.082 54.9971C61.4531 54.9971 62.4941 54.4808 63.2051 53.4482C63.9245 52.4072 64.2842 50.9388 64.2842 49.043V44.4473C64.2842 42.5514 63.9245 41.0915 63.2051 40.0674C62.4857 39.0433 61.4362 38.5312 60.0566 38.5312C58.6855 38.5312 57.6403 39.0433 56.9209 40.0674C56.2015 41.0915 55.8418 42.5514 55.8418 44.4473V49.043C55.8418 50.9303 56.2057 52.3945 56.9336 53.4355C57.6615 54.4766 58.7109 54.9971 60.082 54.9971ZM74.7832 56.2666C72.9805 56.2666 71.5671 55.6234 70.543 54.3369C69.5273 53.042 69.0195 51.2054 69.0195 48.8271V44.7012C69.0195 42.3145 69.5231 40.4779 70.5303 39.1914C71.5459 37.8965 72.9551 37.249 74.7578 37.249C76.5605 37.249 77.9697 37.8965 78.9854 39.1914C80.001 40.4779 80.5088 42.3145 80.5088 44.7012V48.8271C80.5088 51.2139 80.0052 53.0505 78.998 54.3369C77.9909 55.6234 76.5859 56.2666 74.7832 56.2666ZM74.7832 54.9971C76.1543 54.9971 77.1953 54.4808 77.9062 53.4482C78.6257 52.4072 78.9854 50.9388 78.9854 49.043V44.4473C78.9854 42.5514 78.6257 41.0915 77.9062 40.0674C77.1868 39.0433 76.1374 38.5312 74.7578 38.5312C73.3867 38.5312 72.3415 39.0433 71.6221 40.0674C70.9027 41.0915 70.543 42.5514 70.543 44.4473V49.043C70.543 50.9303 70.9069 52.3945 71.6348 53.4355C72.3626 54.4766 73.4121 54.9971 74.7832 54.9971Z" fill="#002648"/>
<path d="M38.631 6.835V8.863H36.187V16H33.639V8.863H31.221V6.835H38.631ZM44.6177 16.091C43.7597 16.091 42.971 15.8917 42.2517 15.493C41.5324 15.0857 40.9604 14.5267 40.5357 13.816C40.1197 13.0967 39.9117 12.2863 39.9117 11.385C39.9117 10.4837 40.1197 9.67767 40.5357 8.967C40.9604 8.24767 41.5324 7.68867 42.2517 7.29C42.971 6.89133 43.7597 6.692 44.6177 6.692C45.4844 6.692 46.273 6.89133 46.9837 7.29C47.703 7.68867 48.2707 8.24767 48.6867 8.967C49.1027 9.67767 49.3107 10.4837 49.3107 11.385C49.3107 12.2863 49.1027 13.0967 48.6867 13.816C48.2707 14.5267 47.703 15.0857 46.9837 15.493C46.2644 15.8917 45.4757 16.091 44.6177 16.091ZM44.6177 13.725C45.2677 13.725 45.779 13.5127 46.1517 13.088C46.533 12.6633 46.7237 12.0957 46.7237 11.385C46.7237 10.657 46.533 10.085 46.1517 9.669C45.779 9.24433 45.2677 9.032 44.6177 9.032C43.959 9.032 43.4434 9.24433 43.0707 9.669C42.698 10.085 42.5117 10.657 42.5117 11.385C42.5117 12.1043 42.698 12.6763 43.0707 13.101C43.4434 13.517 43.959 13.725 44.6177 13.725ZM58.3471 9.89C58.3471 10.4447 58.2171 10.9517 57.9571 11.411C57.7058 11.8617 57.3201 12.2257 56.8001 12.503C56.2888 12.7717 55.6605 12.906 54.9151 12.906H53.6541V16H51.1061V6.835H54.9151C55.6518 6.835 56.2758 6.965 56.7871 7.225C57.3071 7.485 57.6971 7.84467 57.9571 8.304C58.2171 8.76333 58.3471 9.292 58.3471 9.89ZM54.6681 10.878C55.3875 10.878 55.7471 10.5487 55.7471 9.89C55.7471 9.22267 55.3875 8.889 54.6681 8.889H53.6541V10.878H54.6681Z" fill="white"/>
<defs>
<linearGradient id="paint0_linear_4665_69949" x1="30.9509" y1="12.7856" x2="65.8475" y2="73.2017" gradientUnits="userSpaceOnUse">
<stop offset="0.574594" stop-color="#EBF5FF"/>
<stop offset="0.593361" stop-color="#D6EBFF"/>
</linearGradient>
<linearGradient id="paint1_linear_4665_69949" x1="41.7201" y1="32" x2="66.6909" y2="72.7741" gradientUnits="userSpaceOnUse">
<stop offset="0.574594" stop-color="#EBF5FF"/>
<stop offset="0.574694" stop-color="#D6EBFF"/>
</linearGradient>
</defs>
</svg>
