<svg width="90" height="91" viewBox="0 0 90 91" fill="none" xmlns="http://www.w3.org/2000/svg">
<path d="M80 1C84.9706 1 89 5.02944 89 10V82.5527L88.9863 83C88.7123 87.4301 84.3943 90.4973 80.1211 89.2969L79.6943 89.1621L47.3057 77.8633C45.906 77.375 44.3898 77.3442 42.9756 77.7715L42.6943 77.8633L10.3057 89.1621C5.75571 90.7493 1.00006 87.3716 1 82.5527V10C1 5.02944 5.02944 1 10 1H80Z" fill="url(#paint0_linear_4357_45187)" stroke="#002648" stroke-width="2"/>
<path d="M10 3H79.9971C83.8629 3.00012 86.9969 6.13419 86.9971 10L87 82.5518L86.9902 82.8721C86.7943 86.0361 83.7102 88.2262 80.6582 87.3691L80.3525 87.2734L47.9658 75.9746C46.1664 75.347 44.2175 75.3082 42.3994 75.8574L42.0371 75.9746L9.65039 87.2734C6.40052 88.4072 3.00316 85.9947 3.00293 82.5527L3 10L3.00977 9.63965C3.19731 5.94125 6.255 3.00016 10 3Z" fill="url(#paint1_linear_4357_45187)" stroke="white" stroke-width="2"/>
<path d="M10.002 3H79.998C83.7428 3 86.8012 5.94051 86.9893 9.63867L86.998 9.99902L87 19H3.00391L3.00195 10.001C3.00141 6.13463 6.13556 3 10.002 3Z" fill="#002648" stroke="white" stroke-width="2"/>
<path d="M9.1582 60V58.4707L13.7637 58.2422V36.5859L8.70117 37.3418V35.8652L15.873 34.3359V58.2422L20.4609 58.4707V60H9.1582ZM31.8867 60.3691C29.3906 60.3691 27.4336 59.4785 26.0156 57.6973C24.6094 55.9043 23.9062 53.3613 23.9062 50.0684V44.3555C23.9062 41.0508 24.6035 38.5078 25.998 36.7266C27.4043 34.9336 29.3555 34.0371 31.8516 34.0371C34.3477 34.0371 36.2988 34.9336 37.7051 36.7266C39.1113 38.5078 39.8145 41.0508 39.8145 44.3555V50.0684C39.8145 53.373 39.1172 55.916 37.7227 57.6973C36.3281 59.4785 34.3828 60.3691 31.8867 60.3691ZM31.8867 58.6113C33.7852 58.6113 35.2266 57.8965 36.2109 56.4668C37.207 55.0254 37.7051 52.9922 37.7051 50.3672V44.0039C37.7051 41.3789 37.207 39.3574 36.2109 37.9395C35.2148 36.5215 33.7617 35.8125 31.8516 35.8125C29.9531 35.8125 28.5059 36.5215 27.5098 37.9395C26.5137 39.3574 26.0156 41.3789 26.0156 44.0039V50.3672C26.0156 52.9805 26.5195 55.0078 27.5273 56.4492C28.5352 57.8906 29.9883 58.6113 31.8867 58.6113ZM52.2422 60.3691C49.7461 60.3691 47.7891 59.4785 46.3711 57.6973C44.9648 55.9043 44.2617 53.3613 44.2617 50.0684V44.3555C44.2617 41.0508 44.959 38.5078 46.3535 36.7266C47.7598 34.9336 49.7109 34.0371 52.207 34.0371C54.7031 34.0371 56.6543 34.9336 58.0605 36.7266C59.4668 38.5078 60.1699 41.0508 60.1699 44.3555V50.0684C60.1699 53.373 59.4727 55.916 58.0781 57.6973C56.6836 59.4785 54.7383 60.3691 52.2422 60.3691ZM52.2422 58.6113C54.1406 58.6113 55.582 57.8965 56.5664 56.4668C57.5625 55.0254 58.0605 52.9922 58.0605 50.3672V44.0039C58.0605 41.3789 57.5625 39.3574 56.5664 37.9395C55.5703 36.5215 54.1172 35.8125 52.207 35.8125C50.3086 35.8125 48.8613 36.5215 47.8652 37.9395C46.8691 39.3574 46.3711 41.3789 46.3711 44.0039V50.3672C46.3711 52.9805 46.875 55.0078 47.8828 56.4492C48.8906 57.8906 50.3438 58.6113 52.2422 58.6113ZM72.5977 60.3691C70.1016 60.3691 68.1445 59.4785 66.7266 57.6973C65.3203 55.9043 64.6172 53.3613 64.6172 50.0684V44.3555C64.6172 41.0508 65.3145 38.5078 66.709 36.7266C68.1152 34.9336 70.0664 34.0371 72.5625 34.0371C75.0586 34.0371 77.0098 34.9336 78.416 36.7266C79.8223 38.5078 80.5254 41.0508 80.5254 44.3555V50.0684C80.5254 53.373 79.8281 55.916 78.4336 57.6973C77.0391 59.4785 75.0938 60.3691 72.5977 60.3691ZM72.5977 58.6113C74.4961 58.6113 75.9375 57.8965 76.9219 56.4668C77.918 55.0254 78.416 52.9922 78.416 50.3672V44.0039C78.416 41.3789 77.918 39.3574 76.9219 37.9395C75.9258 36.5215 74.4727 35.8125 72.5625 35.8125C70.6641 35.8125 69.2168 36.5215 68.2207 37.9395C67.2246 39.3574 66.7266 41.3789 66.7266 44.0039V50.3672C66.7266 52.9805 67.2305 55.0078 68.2383 56.4492C69.2461 57.8906 70.6992 58.6113 72.5977 58.6113Z" fill="#002648"/>
<path d="M38.631 6.835V8.863H36.187V16H33.639V8.863H31.221V6.835H38.631ZM44.6177 16.091C43.7597 16.091 42.971 15.8917 42.2517 15.493C41.5324 15.0857 40.9604 14.5267 40.5357 13.816C40.1197 13.0967 39.9117 12.2863 39.9117 11.385C39.9117 10.4837 40.1197 9.67767 40.5357 8.967C40.9604 8.24767 41.5324 7.68867 42.2517 7.29C42.971 6.89133 43.7597 6.692 44.6177 6.692C45.4844 6.692 46.273 6.89133 46.9837 7.29C47.703 7.68867 48.2707 8.24767 48.6867 8.967C49.1027 9.67767 49.3107 10.4837 49.3107 11.385C49.3107 12.2863 49.1027 13.0967 48.6867 13.816C48.2707 14.5267 47.703 15.0857 46.9837 15.493C46.2644 15.8917 45.4757 16.091 44.6177 16.091ZM44.6177 13.725C45.2677 13.725 45.779 13.5127 46.1517 13.088C46.533 12.6633 46.7237 12.0957 46.7237 11.385C46.7237 10.657 46.533 10.085 46.1517 9.669C45.779 9.24433 45.2677 9.032 44.6177 9.032C43.959 9.032 43.4434 9.24433 43.0707 9.669C42.698 10.085 42.5117 10.657 42.5117 11.385C42.5117 12.1043 42.698 12.6763 43.0707 13.101C43.4434 13.517 43.959 13.725 44.6177 13.725ZM58.3471 9.89C58.3471 10.4447 58.2171 10.9517 57.9571 11.411C57.7058 11.8617 57.3201 12.2257 56.8001 12.503C56.2888 12.7717 55.6605 12.906 54.9151 12.906H53.6541V16H51.1061V6.835H54.9151C55.6518 6.835 56.2758 6.965 56.7871 7.225C57.3071 7.485 57.6971 7.84467 57.9571 8.304C58.2171 8.76333 58.3471 9.292 58.3471 9.89ZM54.6681 10.878C55.3875 10.878 55.7471 10.5487 55.7471 9.89C55.7471 9.22267 55.3875 8.889 54.6681 8.889H53.6541V10.878H54.6681Z" fill="white"/>
<defs>
<linearGradient id="paint0_linear_4357_45187" x1="30.9509" y1="12.7856" x2="65.8475" y2="73.2017" gradientUnits="userSpaceOnUse">
<stop offset="0.574594" stop-color="#EBF5FF"/>
<stop offset="0.593361" stop-color="#D6EBFF"/>
</linearGradient>
<linearGradient id="paint1_linear_4357_45187" x1="41.7201" y1="32" x2="66.6909" y2="72.7741" gradientUnits="userSpaceOnUse">
<stop offset="0.574594" stop-color="#EBF5FF"/>
<stop offset="0.574694" stop-color="#D6EBFF"/>
</linearGradient>
</defs>
</svg>
