<svg width="90" height="91" viewBox="0 0 90 91" fill="none" xmlns="http://www.w3.org/2000/svg">
<path d="M80 1C84.9706 1 89 5.02944 89 10V82.5527L88.9863 83C88.7123 87.4301 84.3943 90.4973 80.1211 89.2969L79.6943 89.1621L47.3057 77.8633C45.906 77.375 44.3898 77.3442 42.9756 77.7715L42.6943 77.8633L10.3057 89.1621C5.75571 90.7493 1.00006 87.3716 1 82.5527V10C1 5.02944 5.02944 1 10 1H80Z" fill="url(#paint0_linear_4665_69943)" stroke="#002648" stroke-width="2"/>
<path d="M10 3H79.9971C83.8629 3.00012 86.9969 6.13419 86.9971 10L87 82.5518L86.9902 82.8721C86.7943 86.0361 83.7102 88.2262 80.6582 87.3691L80.3525 87.2734L47.9658 75.9746C46.1664 75.347 44.2175 75.3082 42.3994 75.8574L42.0371 75.9746L9.65039 87.2734C6.40052 88.4072 3.00316 85.9947 3.00293 82.5527L3 10L3.00977 9.63965C3.19731 5.94125 6.255 3.00016 10 3Z" fill="url(#paint1_linear_4665_69943)" stroke="white" stroke-width="2"/>
<path d="M10.002 3H79.998C83.7428 3 86.8012 5.94051 86.9893 9.63867L86.998 9.99902L87 19H3.00391L3.00195 10.001C3.00141 6.13463 6.13556 3 10.002 3Z" fill="#002648" stroke="white" stroke-width="2"/>
<path d="M14.4219 58.3281C13.1615 58.3281 12.0365 58.099 11.0469 57.6406C10.0573 57.1719 9.28125 56.474 8.71875 55.5469C8.16667 54.6198 7.90625 53.474 7.9375 52.1094L7.96875 52.0156H9.64062C9.64062 53.5469 10.0729 54.724 10.9375 55.5469C11.8125 56.3594 12.974 56.7656 14.4219 56.7656C16.1094 56.7656 17.3698 56.2552 18.2031 55.2344C19.0469 54.2031 19.4688 52.7188 19.4688 50.7812C19.4688 49.0729 19.0469 47.7083 18.2031 46.6875C17.3594 45.6562 16.1875 45.1406 14.6875 45.1406C13.2292 45.1406 12.1146 45.375 11.3438 45.8438C10.5833 46.3125 10.0365 47.0156 9.70312 47.9531L8.17188 47.6875L9.4375 35.25H20.8594V38.9375H19.3438L19.2031 36.9531H11.0469L10.2031 45.1094C10.5781 44.7656 10.974 44.474 11.3906 44.2344C11.8177 43.9844 12.3125 43.7917 12.875 43.6562C13.4375 43.5104 14.1042 43.4323 14.875 43.4219C16.1667 43.3906 17.2969 43.6771 18.2656 44.2812C19.2448 44.875 20.0052 45.724 20.5469 46.8281C21.0885 47.9323 21.3594 49.2396 21.3594 50.75C21.3594 52.2812 21.099 53.6146 20.5781 54.75C20.0677 55.8854 19.2969 56.7656 18.2656 57.3906C17.2448 58.0156 15.9635 58.3281 14.4219 58.3281ZM25.1875 62.3906L24.0781 61.5781C24.5677 60.8906 24.9271 60.2083 25.1562 59.5312C25.3958 58.8542 25.5156 58.1094 25.5156 57.2969V55.0625H27.3906V57.25C27.3906 58.2188 27.1927 59.1562 26.7969 60.0625C26.4115 60.9688 25.875 61.7448 25.1875 62.3906ZM38.2812 58.3281C36.0625 58.3281 34.3229 57.5365 33.0625 55.9531C31.8125 54.3594 31.1875 52.099 31.1875 49.1719V44.0938C31.1875 41.1562 31.8073 38.8958 33.0469 37.3125C34.2969 35.7188 36.0312 34.9219 38.25 34.9219C40.4688 34.9219 42.2031 35.7188 43.4531 37.3125C44.7031 38.8958 45.3281 41.1562 45.3281 44.0938V49.1719C45.3281 52.1094 44.7083 54.3698 43.4688 55.9531C42.2292 57.5365 40.5 58.3281 38.2812 58.3281ZM38.2812 56.7656C39.9688 56.7656 41.25 56.1302 42.125 54.8594C43.0104 53.5781 43.4531 51.7708 43.4531 49.4375V43.7812C43.4531 41.4479 43.0104 39.651 42.125 38.3906C41.2396 37.1302 39.9479 36.5 38.25 36.5C36.5625 36.5 35.276 37.1302 34.3906 38.3906C33.5052 39.651 33.0625 41.4479 33.0625 43.7812V49.4375C33.0625 51.7604 33.5104 53.5625 34.4062 54.8438C35.3021 56.125 36.5938 56.7656 38.2812 56.7656ZM56.375 58.3281C54.1562 58.3281 52.4167 57.5365 51.1562 55.9531C49.9062 54.3594 49.2812 52.099 49.2812 49.1719V44.0938C49.2812 41.1562 49.901 38.8958 51.1406 37.3125C52.3906 35.7188 54.125 34.9219 56.3438 34.9219C58.5625 34.9219 60.2969 35.7188 61.5469 37.3125C62.7969 38.8958 63.4219 41.1562 63.4219 44.0938V49.1719C63.4219 52.1094 62.8021 54.3698 61.5625 55.9531C60.3229 57.5365 58.5938 58.3281 56.375 58.3281ZM56.375 56.7656C58.0625 56.7656 59.3438 56.1302 60.2188 54.8594C61.1042 53.5781 61.5469 51.7708 61.5469 49.4375V43.7812C61.5469 41.4479 61.1042 39.651 60.2188 38.3906C59.3333 37.1302 58.0417 36.5 56.3438 36.5C54.6562 36.5 53.3698 37.1302 52.4844 38.3906C51.599 39.651 51.1562 41.4479 51.1562 43.7812V49.4375C51.1562 51.7604 51.6042 53.5625 52.5 54.8438C53.3958 56.125 54.6875 56.7656 56.375 56.7656ZM74.4688 58.3281C72.25 58.3281 70.5104 57.5365 69.25 55.9531C68 54.3594 67.375 52.099 67.375 49.1719V44.0938C67.375 41.1562 67.9948 38.8958 69.2344 37.3125C70.4844 35.7188 72.2188 34.9219 74.4375 34.9219C76.6562 34.9219 78.3906 35.7188 79.6406 37.3125C80.8906 38.8958 81.5156 41.1562 81.5156 44.0938V49.1719C81.5156 52.1094 80.8958 54.3698 79.6562 55.9531C78.4167 57.5365 76.6875 58.3281 74.4688 58.3281ZM74.4688 56.7656C76.1562 56.7656 77.4375 56.1302 78.3125 54.8594C79.1979 53.5781 79.6406 51.7708 79.6406 49.4375V43.7812C79.6406 41.4479 79.1979 39.651 78.3125 38.3906C77.4271 37.1302 76.1354 36.5 74.4375 36.5C72.75 36.5 71.4635 37.1302 70.5781 38.3906C69.6927 39.651 69.25 41.4479 69.25 43.7812V49.4375C69.25 51.7604 69.6979 53.5625 70.5938 54.8438C71.4896 56.125 72.7812 56.7656 74.4688 56.7656Z" fill="#002648"/>
<path d="M38.631 6.835V8.863H36.187V16H33.639V8.863H31.221V6.835H38.631ZM44.6177 16.091C43.7597 16.091 42.971 15.8917 42.2517 15.493C41.5324 15.0857 40.9604 14.5267 40.5357 13.816C40.1197 13.0967 39.9117 12.2863 39.9117 11.385C39.9117 10.4837 40.1197 9.67767 40.5357 8.967C40.9604 8.24767 41.5324 7.68867 42.2517 7.29C42.971 6.89133 43.7597 6.692 44.6177 6.692C45.4844 6.692 46.273 6.89133 46.9837 7.29C47.703 7.68867 48.2707 8.24767 48.6867 8.967C49.1027 9.67767 49.3107 10.4837 49.3107 11.385C49.3107 12.2863 49.1027 13.0967 48.6867 13.816C48.2707 14.5267 47.703 15.0857 46.9837 15.493C46.2644 15.8917 45.4757 16.091 44.6177 16.091ZM44.6177 13.725C45.2677 13.725 45.779 13.5127 46.1517 13.088C46.533 12.6633 46.7237 12.0957 46.7237 11.385C46.7237 10.657 46.533 10.085 46.1517 9.669C45.779 9.24433 45.2677 9.032 44.6177 9.032C43.959 9.032 43.4434 9.24433 43.0707 9.669C42.698 10.085 42.5117 10.657 42.5117 11.385C42.5117 12.1043 42.698 12.6763 43.0707 13.101C43.4434 13.517 43.959 13.725 44.6177 13.725ZM58.3471 9.89C58.3471 10.4447 58.2171 10.9517 57.9571 11.411C57.7058 11.8617 57.3201 12.2257 56.8001 12.503C56.2888 12.7717 55.6605 12.906 54.9151 12.906H53.6541V16H51.1061V6.835H54.9151C55.6518 6.835 56.2758 6.965 56.7871 7.225C57.3071 7.485 57.6971 7.84467 57.9571 8.304C58.2171 8.76333 58.3471 9.292 58.3471 9.89ZM54.6681 10.878C55.3875 10.878 55.7471 10.5487 55.7471 9.89C55.7471 9.22267 55.3875 8.889 54.6681 8.889H53.6541V10.878H54.6681Z" fill="white"/>
<defs>
<linearGradient id="paint0_linear_4665_69943" x1="30.9509" y1="12.7856" x2="65.8475" y2="73.2017" gradientUnits="userSpaceOnUse">
<stop offset="0.574594" stop-color="#EBF5FF"/>
<stop offset="0.593361" stop-color="#D6EBFF"/>
</linearGradient>
<linearGradient id="paint1_linear_4665_69943" x1="41.7201" y1="32" x2="66.6909" y2="72.7741" gradientUnits="userSpaceOnUse">
<stop offset="0.574594" stop-color="#EBF5FF"/>
<stop offset="0.574694" stop-color="#D6EBFF"/>
</linearGradient>
</defs>
</svg>
