<svg width="1200" height="630" viewBox="0 0 1200 630" fill="none" xmlns="http://www.w3.org/2000/svg">
    <g clip-path="url(#clip0_6141_107)">
        <rect width="1200" height="630" fill="white"/>
        <rect width="1200" height="630" fill="url(#paint0_linear_6141_107)"/>
        <path d="M1170.5 367.5L1230.5 337.5V392.5L1170.5 422.5V367.5Z" fill="#00426F"/>
        <path d="M1170.5 367.5L1230.5 337.5L978.5 240L918 272.5L1170.5 367.5Z" fill="#D9E9FF"/>
        <path d="M1110.5 452.5L1170.5 422.5V477.5L1110.5 507.5V452.5Z" fill="#00426F"/>
        <path d="M1110.5 452.5L1170.5 422.5L918.5 325L858 357.5L1110.5 452.5Z" fill="#D9E9FF"/>
        <path d="M1050.5 537.5L1110.5 507.5V562.5L1050.5 592.5V537.5Z" fill="#00426F"/>
        <path d="M1050.5 537.5L1110.5 507.5L858.5 410L798 442.5L1050.5 537.5Z" fill="#D9E9FF"/>
        <path d="M990.5 622.5L1050.5 592.5V647.5L990.5 677.5V622.5Z" fill="#00426F"/>
        <path d="M990.5 622.5L1050.5 592.5L798.5 495L738 527.5L990.5 622.5Z" fill="#D9E9FF"/>
        <path d="M930.5 708.5L990.5 678.5L738.5 581L678 613.5L930.5 708.5Z" fill="#D9E9FF"/>
        <g filter="url(#filter0_i_6141_107)">
            <g clip-path="url(#clip1_6141_107)">
                <rect x="972" y="338" width="64" height="64" rx="32" fill="#009AFF"/>
                <g filter="url(#filter1_f_6141_107)">
                    <ellipse cx="1000.88" cy="359.905" rx="35.122" ry="34.4762" fill="#85C2FF"/>
                </g>
                <g opacity="0.5" filter="url(#filter2_f_6141_107)">
                    <ellipse cx="996.195" cy="355.143" rx="21.4634" ry="20.9524" fill="#D9E9FF"/>
                </g>
                <g opacity="0.6" filter="url(#filter3_f_6141_107)">
                    <ellipse cx="9.09149" cy="5.43997" rx="9.09149" ry="5.43997" transform="matrix(0.981993 -0.188915 0.196258 0.980552 1001.27 392.864)" fill="#85C2FF"/>
                </g>
            </g>
        </g>
        <path d="M877.236 555.101C877.255 555.653 876.822 556.116 876.27 556.135C875.719 556.153 875.256 555.721 875.237 555.17C875.214 554.48 875.191 553.795 875.171 553.113L877.17 553.053C877.19 553.732 877.213 554.415 877.236 555.101ZM877.001 545.091C877.017 546.387 877.039 547.699 877.067 549.026L875.067 549.068C875.039 547.736 875.017 546.418 875.001 545.116L877.001 545.091ZM876.981 537.066C876.971 538.383 876.967 539.717 876.971 541.068L874.971 541.073C874.967 539.715 874.971 538.374 874.981 537.051L876.981 537.066ZM877.129 529.087C877.089 530.421 877.056 531.776 877.031 533.149L875.032 533.113C875.057 531.732 875.09 530.37 875.13 529.027L877.129 529.087ZM877.466 521.139C877.393 522.452 877.328 523.786 877.271 525.14L875.272 525.056C875.33 523.694 875.396 522.351 875.469 521.029L877.466 521.139ZM878.016 513.212C877.907 514.504 877.806 515.82 877.713 517.157L875.718 517.018C875.811 515.671 875.913 514.346 876.022 513.044L878.016 513.212ZM878.814 505.3C878.663 506.579 878.52 507.883 878.386 509.212L876.396 509.01C876.532 507.67 876.676 506.355 876.829 505.064L878.814 505.3ZM879.907 497.412C879.704 498.682 879.511 499.98 879.327 501.306L877.346 501.032C877.531 499.692 877.727 498.38 877.932 497.096L879.907 497.412ZM881.35 489.574C881.084 490.836 880.829 492.131 880.585 493.46L878.617 493.098C878.864 491.754 879.123 490.441 879.393 489.162L881.35 489.574ZM883.215 481.844C882.871 483.093 882.539 484.382 882.22 485.711L880.275 485.243C880.6 483.893 880.937 482.583 881.287 481.312L883.215 481.844ZM884.653 473.978L885.594 474.318C885.157 475.524 884.734 476.778 884.324 478.079L882.416 477.478C882.834 476.151 883.267 474.871 883.714 473.637L884.653 473.978ZM888.655 467.032C888.101 468.169 887.559 469.364 887.034 470.619L886.112 470.232L885.189 469.846C885.729 468.558 886.285 467.328 886.857 466.155L888.655 467.032ZM940.77 466.251C941.138 466.818 941.5 467.396 941.855 467.982C942.141 468.454 941.991 469.069 941.519 469.355C941.046 469.641 940.431 469.491 940.145 469.018C939.8 468.45 939.449 467.89 939.092 467.34L940.77 466.251ZM935.905 459.736C936.777 460.748 937.625 461.809 938.448 462.913L936.845 464.108C936.049 463.04 935.23 462.017 934.39 461.041L935.905 459.736ZM892.568 460.265C891.859 461.293 891.165 462.393 890.487 463.571L889.62 463.073L888.754 462.574C889.457 461.352 890.18 460.203 890.922 459.129L892.568 460.265ZM930.112 454.003C931.139 454.857 932.146 455.775 933.13 456.752L932.425 457.461L931.721 458.171C930.777 457.233 929.813 456.355 928.834 455.54L930.112 454.003ZM897.619 454.366C896.709 455.202 895.813 456.135 894.935 457.169L893.411 455.873C894.34 454.78 895.292 453.788 896.266 452.893L897.619 454.366ZM923.283 449.438C924.483 450.052 925.668 450.755 926.833 451.539L926.275 452.369L925.717 453.198C924.614 452.456 923.497 451.795 922.372 451.219L923.283 449.438ZM903.965 450.12C902.843 450.618 901.731 451.233 900.635 451.973L899.517 450.315C900.707 449.512 901.921 448.839 903.153 448.292L903.965 450.12ZM915.457 446.777C916.807 447.004 918.151 447.352 919.481 447.811L918.829 449.702C917.597 449.277 916.36 448.958 915.125 448.75L915.457 446.777ZM911.327 448.467C910.065 448.493 908.808 448.643 907.562 448.925L907.122 446.973C908.501 446.662 909.892 446.496 911.285 446.467L911.327 448.467Z" fill="#00426F"/>
        <path d="M944.267 471.966C944.285 472.518 943.853 472.98 943.301 472.999C942.749 473.018 942.286 472.586 942.268 472.034C942.244 471.348 942.222 470.666 942.202 469.987L944.201 469.928C944.221 470.603 944.243 471.283 944.267 471.966ZM944.031 461.913C944.047 463.233 944.07 464.569 944.099 465.92L942.099 465.963C942.07 464.605 942.047 463.264 942.031 461.938L944.031 461.913ZM944.011 453.896C944.001 455.216 943.997 456.554 944.001 457.909L942.001 457.914C941.997 456.552 942.002 455.208 942.012 453.88L944.011 453.896ZM943.16 445.851L944.159 445.881C944.12 447.204 944.087 448.546 944.063 449.906L942.063 449.869C942.088 448.501 942.12 447.152 942.16 445.821L943.16 445.851ZM943.498 437.826L944.497 437.881C944.424 439.206 944.358 440.553 944.301 441.92L942.303 441.836C942.36 440.46 942.426 439.105 942.5 437.771L943.498 437.826ZM944.052 429.831L945.049 429.914C944.939 431.219 944.836 432.547 944.743 433.897L942.748 433.759C942.842 432.399 942.945 431.062 943.056 429.747L944.052 429.831ZM945.852 421.95C945.698 423.245 945.553 424.565 945.418 425.911L943.428 425.711C943.564 424.354 943.71 423.022 943.865 421.715L945.852 421.95ZM946.948 414.022C946.742 415.317 946.545 416.641 946.358 417.995L944.377 417.722C944.566 416.354 944.765 415.016 944.974 413.707L946.948 414.022ZM948.39 406.18C948.123 407.448 947.868 408.75 947.623 410.085L945.655 409.725C945.903 408.373 946.162 407.054 946.433 405.769L948.39 406.18ZM950.254 398.443C949.911 399.691 949.581 400.979 949.262 402.306L947.316 401.838C947.64 400.491 947.977 399.183 948.325 397.914L950.254 398.443ZM951.71 390.513L952.65 390.853C952.213 392.06 951.789 393.316 951.379 394.619L950.426 394.318L949.472 394.019C949.89 392.689 950.324 391.407 950.771 390.172L951.71 390.513ZM955.715 383.557C955.158 384.699 954.615 385.899 954.088 387.16L952.242 386.388C952.784 385.093 953.342 383.858 953.917 382.68L955.715 383.557ZM959.671 376.725C958.955 377.758 958.254 378.868 957.57 380.055L956.703 379.556L955.837 379.056C956.547 377.824 957.277 376.668 958.026 375.586L959.671 376.725ZM964.751 370.821C963.832 371.659 962.928 372.596 962.041 373.636L960.52 372.337C961.457 371.238 962.419 370.241 963.402 369.344L964.751 370.821ZM971.139 366.595C970.008 367.087 968.888 367.698 967.782 368.437L966.672 366.773C967.873 365.972 969.097 365.302 970.341 364.761L971.139 366.595ZM982.718 363.359C983.401 363.482 984.082 363.637 984.761 363.82L984.239 365.751C983.614 365.582 982.988 365.441 982.363 365.328L982.718 363.359ZM978.553 365.001C977.284 365.014 976.02 365.153 974.767 365.423L974.345 363.468C975.733 363.168 977.131 363.016 978.532 363.001L978.553 365.001Z" fill="#00426F"/>
        <path d="M810.267 638.64C810.285 639.192 809.853 639.654 809.301 639.673C808.749 639.692 808.286 639.26 808.268 638.708C808.244 638.019 808.222 637.333 808.201 636.651L810.2 636.592C810.221 637.271 810.243 637.953 810.267 638.64ZM810.031 628.629C810.047 629.925 810.069 631.237 810.098 632.564L808.098 632.606C808.069 631.274 808.047 629.957 808.031 628.654L810.031 628.629ZM810.012 620.604C810.002 621.921 809.998 623.255 810.001 624.606L808.001 624.611C807.998 623.254 808.002 621.913 808.012 620.589L810.012 620.604ZM810.159 612.625C810.119 613.96 810.087 615.314 810.062 616.688L808.062 616.651C808.088 615.27 808.12 613.908 808.16 612.565L810.159 612.625ZM810.496 604.678C810.424 605.991 810.359 607.325 810.302 608.679L808.303 608.595C808.36 607.232 808.426 605.889 808.499 604.567L810.496 604.678ZM811.046 596.75C810.937 598.043 810.836 599.358 810.743 600.695L808.748 600.557C808.841 599.21 808.943 597.885 809.053 596.582L811.046 596.75ZM811.845 588.838C811.693 590.117 811.55 591.421 811.416 592.75L809.427 592.549C809.562 591.209 809.706 589.893 809.859 588.603L811.845 588.838ZM812.937 580.95C812.735 582.22 812.541 583.518 812.357 584.845L810.376 584.57C810.561 583.23 810.757 581.919 810.962 580.635L812.937 580.95ZM814.38 573.112C814.114 574.374 813.859 575.67 813.615 576.998L811.647 576.637C811.895 575.292 812.154 573.98 812.423 572.7L814.38 573.112ZM816.245 565.382C815.901 566.631 815.57 567.92 815.25 569.249L813.306 568.781C813.63 567.432 813.967 566.122 814.317 564.851L816.245 565.382ZM817.684 557.517L818.624 557.856C818.188 559.062 817.764 560.316 817.354 561.617L815.446 561.017C815.864 559.689 816.298 558.409 816.744 557.176L817.684 557.517ZM821.686 550.57C821.131 551.707 820.59 552.903 820.064 554.157L819.143 553.771L818.22 553.385C818.759 552.097 819.315 550.866 819.888 549.693L821.686 550.57ZM873.8 549.789C874.168 550.357 874.531 550.934 874.886 551.521C875.172 551.993 875.021 552.607 874.549 552.894C874.076 553.18 873.461 553.029 873.175 552.557C872.83 551.988 872.479 551.428 872.122 550.878L873.8 549.789ZM868.936 543.274C869.807 544.287 870.656 545.347 871.479 546.451L869.875 547.646C869.079 546.579 868.26 545.555 867.42 544.579L868.936 543.274ZM825.599 543.804C824.89 544.831 824.195 545.932 823.518 547.109L822.65 546.611L821.784 546.112C822.487 544.89 823.21 543.742 823.952 542.667L825.599 543.804ZM863.143 537.541C864.169 538.395 865.177 539.313 866.16 540.29L865.455 540.999L864.751 541.709C863.807 540.772 862.844 539.893 861.864 539.078L863.143 537.541ZM830.649 537.904C829.74 538.74 828.843 539.673 827.965 540.707L826.441 539.411C827.37 538.319 828.322 537.326 829.296 536.432L830.649 537.904ZM856.313 532.977C857.514 533.591 858.699 534.293 859.863 535.077L859.306 535.907L858.747 536.736C857.644 535.994 856.528 535.334 855.402 534.758L856.313 532.977ZM836.995 533.658C835.873 534.156 834.762 534.772 833.665 535.512L832.547 533.854C833.737 533.05 834.951 532.377 836.184 531.83L836.995 533.658ZM848.487 530.315C849.837 530.543 851.181 530.891 852.512 531.35L851.859 533.24C850.627 532.815 849.39 532.496 848.155 532.288L848.487 530.315ZM844.357 532.005C843.095 532.032 841.838 532.182 840.592 532.463L840.152 530.512C841.532 530.201 842.922 530.035 844.315 530.005L844.357 532.005Z" fill="#00426F"/>
    </g>
    <defs>
        <filter id="filter0_i_6141_107" x="962" y="328" width="74" height="74" filterUnits="userSpaceOnUse" color-interpolation-filters="sRGB">
            <feFlood flood-opacity="0" result="BackgroundImageFix"/>
            <feBlend mode="normal" in="SourceGraphic" in2="BackgroundImageFix" result="shape"/>
            <feColorMatrix in="SourceAlpha" type="matrix" values="0 0 0 0 0 0 0 0 0 0 0 0 0 0 0 0 0 0 127 0" result="hardAlpha"/>
            <feMorphology radius="4" operator="erode" in="SourceAlpha" result="effect1_innerShadow_6141_107"/>
            <feOffset dx="-10" dy="-10"/>
            <feGaussianBlur stdDeviation="15"/>
            <feComposite in2="hardAlpha" operator="arithmetic" k2="-1" k3="1"/>
            <feColorMatrix type="matrix" values="0 0 0 0 0.198624 0 0 0 0 0.521768 0 0 0 0 0.742094 0 0 0 1 0"/>
            <feBlend mode="normal" in2="shape" result="effect1_innerShadow_6141_107"/>
        </filter>
        <filter id="filter1_f_6141_107" x="905.756" y="265.429" width="190.244" height="188.952" filterUnits="userSpaceOnUse" color-interpolation-filters="sRGB">
            <feFlood flood-opacity="0" result="BackgroundImageFix"/>
            <feBlend mode="normal" in="SourceGraphic" in2="BackgroundImageFix" result="shape"/>
            <feGaussianBlur stdDeviation="30" result="effect1_foregroundBlur_6141_107"/>
        </filter>
        <filter id="filter2_f_6141_107" x="924.732" y="284.19" width="142.927" height="141.905" filterUnits="userSpaceOnUse" color-interpolation-filters="sRGB">
            <feFlood flood-opacity="0" result="BackgroundImageFix"/>
            <feBlend mode="normal" in="SourceGraphic" in2="BackgroundImageFix" result="shape"/>
            <feGaussianBlur stdDeviation="25" result="effect1_foregroundBlur_6141_107"/>
        </filter>
        <filter id="filter3_f_6141_107" x="972.271" y="360.875" width="77.9846" height="71.2108" filterUnits="userSpaceOnUse" color-interpolation-filters="sRGB">
            <feFlood flood-opacity="0" result="BackgroundImageFix"/>
            <feBlend mode="normal" in="SourceGraphic" in2="BackgroundImageFix" result="shape"/>
            <feGaussianBlur stdDeviation="15" result="effect1_foregroundBlur_6141_107"/>
        </filter>
        <linearGradient id="paint0_linear_6141_107" x1="0" y1="0" x2="1200" y2="630" gradientUnits="userSpaceOnUse">
            <stop stop-color="#ECF4FF"/>
            <stop offset="0.5" stop-color="white"/>
        </linearGradient>
        <clipPath id="clip0_6141_107">
            <rect width="1200" height="630" fill="white"/>
        </clipPath>
        <clipPath id="clip1_6141_107">
            <rect x="972" y="338" width="64" height="64" rx="32" fill="white"/>
        </clipPath>
    </defs>
</svg>
