<svg preserveAspectRatio="none" width="100%" height="100%" overflow="visible" style="display: block;" viewBox="0 0 352.001 47.7547" fill="none" xmlns="http://www.w3.org/2000/svg">
<g id="Group 1">
<path id="Vector" d="M7.93027 32.001V16.0479H0V39.9315H23.883V32.001H7.93027Z" fill="#0094FF"/>
<path id="Vector_2" d="M39.7436 0.0932893H0V12.0812H7.93027V8.11595H31.8133V31.9995H27.8482V39.93H39.7436V0.0932893Z" fill="#003778"/>
<path id="Vector_3" d="M47.7676 1.33954e-05H60.0318V29.6931H77.7366V39.9289H47.7676V1.33954e-05Z" fill="#003778"/>
<path id="Vector_4" d="M85.5885 1.33954e-05H116.48V10.2358H97.945V15.2154H113.898V24.7135H97.945V39.9289H85.5885V1.33954e-05Z" fill="#003778"/>
<path id="Vector_5" d="M134.638 18.7206L121.543 0.0932893H135.929L141.922 10.8824L147.824 0.0932893H161.379L148.654 18.8128L162.855 39.8378H148.101L141.369 28.0343L134.361 39.93H120.345L134.638 18.7206Z" fill="#0094FF"/>
<g id="Insights">
<path id="Vector_6" d="M348.12 20.4433C348.088 19.517 347.896 18.7184 347.545 18.0476C347.194 17.3448 346.714 16.7699 346.108 16.3227C345.533 15.8755 344.862 15.556 344.095 15.3644C343.329 15.1408 342.514 15.029 341.652 15.029C340.981 15.029 340.294 15.1088 339.591 15.2685C338.921 15.3963 338.298 15.6359 337.723 15.9873C337.148 16.3067 336.685 16.7379 336.333 17.281C335.982 17.824 335.806 18.4948 335.806 19.2934C335.806 19.9642 335.966 20.5392 336.285 21.0183C336.637 21.4655 337.068 21.8488 337.579 22.1683C338.09 22.4877 338.649 22.7592 339.256 22.9828C339.863 23.1745 340.422 23.3342 340.933 23.462L344.958 24.3723C345.82 24.5001 346.667 24.7397 347.497 25.0911C348.36 25.4105 349.11 25.8417 349.749 26.3848C350.42 26.9278 350.963 27.5986 351.378 28.3972C351.793 29.1958 352.001 30.1381 352.001 31.2241C352.001 32.5658 351.698 33.7157 351.091 34.674C350.484 35.6004 349.701 36.367 348.743 36.9739C347.817 37.5489 346.762 37.9641 345.581 38.2197C344.399 38.4752 343.233 38.603 342.083 38.603C339.176 38.603 336.812 37.9162 334.992 36.5427C333.203 35.1691 332.181 32.965 331.925 29.9304H334.944C335.071 31.9748 335.806 33.524 337.148 34.5782C338.521 35.6004 340.214 36.1114 342.227 36.1114C342.961 36.1114 343.712 36.0316 344.479 35.8719C345.277 35.7122 346.012 35.4406 346.683 35.0573C347.353 34.674 347.896 34.1949 348.312 33.6199C348.759 33.013 348.982 32.2783 348.982 31.4158C348.982 30.6811 348.823 30.0742 348.503 29.595C348.216 29.084 347.817 28.6687 347.305 28.3493C346.794 27.9979 346.203 27.7104 345.533 27.4868C344.894 27.2632 344.239 27.0715 343.568 26.9118L339.687 26.0494C338.697 25.7938 337.787 25.5063 336.956 25.1869C336.126 24.8355 335.391 24.4203 334.752 23.9411C334.145 23.43 333.666 22.8231 333.315 22.1203C332.963 21.3857 332.788 20.4912 332.788 19.4371C332.788 18.1913 333.059 17.1212 333.602 16.2268C334.177 15.3324 334.912 14.6137 335.806 14.0707C336.701 13.5276 337.691 13.1284 338.777 12.8728C339.895 12.6173 340.997 12.4895 342.083 12.4895C343.329 12.4895 344.479 12.6492 345.533 12.9686C346.619 13.2881 347.561 13.7832 348.36 14.454C349.19 15.1248 349.845 15.9553 350.324 16.9456C350.803 17.9358 351.075 19.1017 351.139 20.4433H348.12Z" fill="#003778"/>
<path id="Vector_7" d="M323.923 13.2111H328.954V15.7506H323.923V32.4249C323.923 33.4152 324.051 34.1978 324.307 34.7728C324.594 35.3158 325.281 35.6193 326.367 35.6831C327.229 35.6831 328.092 35.6352 328.954 35.5394V38.0789C328.507 38.0789 328.06 38.0949 327.613 38.1268C327.166 38.1587 326.718 38.1747 326.271 38.1747C324.259 38.1747 322.853 37.7914 322.055 37.0248C321.256 36.2262 320.873 34.7728 320.905 32.6645V15.7506H316.593V13.2111H320.905V5.78436H323.923V13.2111Z" fill="#003778"/>
<path id="Vector_8" d="M293.338 3.72208H296.357V17.4736H296.453C297.028 15.9723 298.05 14.7744 299.519 13.88C300.989 12.9537 302.602 12.4905 304.359 12.4905C306.083 12.4905 307.521 12.7141 308.671 13.1613C309.853 13.6085 310.795 14.2473 311.498 15.0779C312.2 15.8764 312.696 16.8667 312.983 18.0486C313.271 19.2305 313.414 20.5561 313.414 22.0255V37.9332H310.396V22.5047C310.396 21.4505 310.3 20.4763 310.108 19.5819C309.917 18.6555 309.581 17.8569 309.102 17.1861C308.623 16.5153 307.968 15.9883 307.138 15.6049C306.339 15.2216 305.333 15.03 304.119 15.03C302.905 15.03 301.819 15.2536 300.861 15.7008C299.935 16.116 299.136 16.707 298.465 17.4736C297.826 18.2083 297.315 19.1027 296.932 20.1568C296.581 21.179 296.389 22.297 296.357 23.5109V37.9332H293.338V3.72208Z" fill="#003778"/>
<path id="Vector_9" d="M287.667 35.9198C287.667 37.7405 287.459 39.3856 287.044 40.855C286.66 42.3244 286.037 43.5702 285.175 44.5923C284.313 45.6145 283.179 46.3971 281.773 46.9402C280.4 47.4832 278.707 47.7547 276.694 47.7547C275.449 47.7547 274.235 47.611 273.053 47.3235C271.871 47.036 270.801 46.5888 269.843 45.9819C268.916 45.375 268.134 44.5923 267.495 43.6341C266.888 42.7077 266.537 41.5897 266.441 40.28H269.459C269.619 41.2064 269.923 41.973 270.37 42.5799C270.849 43.2188 271.408 43.7299 272.047 44.1132C272.718 44.4965 273.452 44.768 274.251 44.9278C275.049 45.1194 275.864 45.2152 276.694 45.2152C279.505 45.2152 281.534 44.4167 282.779 42.8195C284.025 41.2223 284.648 38.9224 284.648 35.9198V32.5658H284.552C283.849 34.099 282.811 35.3288 281.438 36.2552C280.096 37.1815 278.515 37.6447 276.694 37.6447C274.714 37.6447 273.021 37.3253 271.615 36.6864C270.21 36.0156 269.044 35.1052 268.118 33.9553C267.223 32.8053 266.569 31.4637 266.153 29.9304C265.738 28.3652 265.53 26.7042 265.53 24.9473C265.53 23.2543 265.77 21.6572 266.249 20.1558C266.76 18.6226 267.479 17.2969 268.405 16.1789C269.364 15.029 270.529 14.1346 271.903 13.4957C273.308 12.8249 274.906 12.4895 276.694 12.4895C277.621 12.4895 278.483 12.6173 279.282 12.8728C280.112 13.1284 280.863 13.4957 281.534 13.9748C282.204 14.422 282.795 14.9491 283.306 15.556C283.849 16.163 284.265 16.8018 284.552 17.4726H284.648V13.2082H287.667V35.9198ZM276.694 35.1052C278.004 35.1052 279.154 34.8337 280.144 34.2907C281.134 33.7157 281.965 32.981 282.636 32.0866C283.306 31.1603 283.802 30.1061 284.121 28.9242C284.472 27.7423 284.648 26.5285 284.648 25.2827C284.648 24.0689 284.504 22.855 284.217 21.6412C283.929 20.4274 283.466 19.3253 282.827 18.3351C282.188 17.3448 281.358 16.5463 280.336 15.9393C279.346 15.3324 278.132 15.029 276.694 15.029C275.257 15.029 274.027 15.3324 273.005 15.9393C271.983 16.5143 271.136 17.281 270.466 18.2393C269.795 19.1975 269.3 20.2996 268.98 21.5454C268.693 22.7592 268.549 24.005 268.549 25.2827C268.549 26.5285 268.709 27.7423 269.028 28.9242C269.348 30.1061 269.843 31.1603 270.513 32.0866C271.184 32.981 272.031 33.7157 273.053 34.2907C274.075 34.8337 275.289 35.1052 276.694 35.1052Z" fill="#003778"/>
<path id="Vector_10" d="M257.976 3.72208H260.995V8.56147H257.976V3.72208ZM257.976 13.2092H260.995V37.9332H257.976V13.2092Z" fill="#003778"/>
<path id="Vector_11" d="M249.675 20.4433C249.643 19.517 249.451 18.7184 249.1 18.0476C248.749 17.3448 248.269 16.7699 247.662 16.3227C247.088 15.8755 246.417 15.556 245.65 15.3644C244.883 15.1408 244.069 15.029 243.207 15.029C242.536 15.029 241.849 15.1088 241.146 15.2685C240.475 15.3963 239.853 15.6359 239.278 15.9873C238.703 16.3067 238.239 16.7379 237.888 17.281C237.537 17.824 237.361 18.4948 237.361 19.2934C237.361 19.9642 237.521 20.5392 237.84 21.0183C238.192 21.4655 238.623 21.8488 239.134 22.1683C239.645 22.4877 240.204 22.7592 240.811 22.9828C241.418 23.1745 241.977 23.3342 242.488 23.462L246.513 24.3723C247.375 24.5001 248.221 24.7397 249.052 25.0911C249.914 25.4105 250.665 25.8417 251.304 26.3848C251.975 26.9278 252.518 27.5986 252.933 28.3972C253.348 29.1958 253.556 30.1381 253.556 31.2241C253.556 32.5658 253.252 33.7157 252.646 34.674C252.039 35.6004 251.256 36.367 250.298 36.9739C249.371 37.5489 248.317 37.9641 247.135 38.2197C245.954 38.4752 244.788 38.603 243.638 38.603C240.731 38.603 238.367 37.9162 236.547 36.5427C234.758 35.1691 233.736 32.965 233.48 29.9304H236.499C236.626 31.9748 237.361 33.524 238.703 34.5782C240.076 35.6004 241.769 36.1114 243.781 36.1114C244.516 36.1114 245.267 36.0316 246.033 35.8719C246.832 35.7122 247.567 35.4406 248.237 35.0573C248.908 34.674 249.451 34.1949 249.867 33.6199C250.314 33.013 250.537 32.2783 250.537 31.4158C250.537 30.6811 250.378 30.0742 250.058 29.595C249.771 29.084 249.371 28.6687 248.86 28.3493C248.349 27.9979 247.758 27.7104 247.088 27.4868C246.449 27.2632 245.794 27.0715 245.123 26.9118L241.242 26.0494C240.252 25.7938 239.341 25.5063 238.511 25.1869C237.68 24.8355 236.946 24.4203 236.307 23.9411C235.7 23.43 235.221 22.8231 234.87 22.1203C234.518 21.3857 234.343 20.4912 234.343 19.4371C234.343 18.1913 234.614 17.1212 235.157 16.2268C235.732 15.3324 236.467 14.6137 237.361 14.0707C238.255 13.5276 239.246 13.1284 240.332 12.8728C241.45 12.6173 242.552 12.4895 243.638 12.4895C244.883 12.4895 246.033 12.6492 247.088 12.9686C248.174 13.2881 249.116 13.7832 249.914 14.454C250.745 15.1248 251.4 15.9553 251.879 16.9456C252.358 17.9358 252.63 19.1017 252.693 20.4433H249.675Z" fill="#003778"/>
<path id="Vector_12" d="M209.089 13.2082H212.108V17.4726H212.204C212.779 15.9713 213.801 14.7734 215.27 13.879C216.739 12.9527 218.352 12.4895 220.109 12.4895C221.834 12.4895 223.272 12.7131 224.422 13.1603C225.603 13.6075 226.546 14.2464 227.248 15.0769C227.951 15.8755 228.446 16.8657 228.734 18.0476C229.021 19.2295 229.165 20.5551 229.165 22.0245V37.9322H226.146V22.5037C226.146 21.4495 226.051 20.4753 225.859 19.5809C225.667 18.6545 225.332 17.8559 224.853 17.1851C224.374 16.5143 223.719 15.9873 222.888 15.6039C222.09 15.2206 221.084 15.029 219.87 15.029C218.656 15.029 217.57 15.2526 216.612 15.6998C215.685 16.115 214.887 16.706 214.216 17.4726C213.577 18.2073 213.066 19.1017 212.683 20.1558C212.331 21.178 212.14 22.296 212.108 23.5099V37.9322H209.089V13.2082Z" fill="#003778"/>
<path id="Vector_13" d="M199.328 3.72208H202.586V37.9332H199.328V3.72208Z" fill="#003778"/>
</g>
<path id="Vector 256 (Stroke)" fill-rule="evenodd" clip-rule="evenodd" d="M179.18 39.9289V1.33954e-05H180.179V39.9289H179.18Z" fill="#CCCCCC"/>
</g>
</svg>
