<svg width="201" height="24" viewBox="0 0 201 24" fill="none" xmlns="http://www.w3.org/2000/svg">
<path d="M3.98569 16.0828V8.06507H0V20.0685H12.0034V16.0828H3.98569Z" fill="#0094FF"/>
<path d="M19.9748 0.0465908H0V6.07147H3.98569V4.07863H15.9891V16.0821H13.9963V20.0677H19.9748V0.0465908Z" fill="#003778"/>
<path d="M24.0112 -0.000286102H30.1751V14.9229H39.0734V20.0672H24.0112V-0.000286102Z" fill="#003778"/>
<path d="M43.0117 -0.000286102H58.5374V5.14404H49.222V7.64668H57.2397V12.4202H49.222V20.0672H43.0117V-0.000286102Z" fill="#003778"/>
<path d="M67.6645 9.40833L61.0835 0.0465908H68.3134L71.3258 5.46899L74.2919 0.0465908H81.1047L74.709 9.45468L81.8462 20.0214H74.431L71.0478 14.0892L67.5255 20.0677H60.481L67.6645 9.40833Z" fill="#0094FF"/>
<path d="M174.958 10.2741C174.941 9.80854 174.845 9.40719 174.669 9.07005C174.492 8.71687 174.251 8.42789 173.946 8.20314C173.657 7.97838 173.32 7.81784 172.935 7.72152C172.549 7.60914 172.14 7.55295 171.707 7.55295C171.369 7.55295 171.024 7.59309 170.671 7.67336C170.334 7.73757 170.021 7.85798 169.732 8.03457C169.443 8.19511 169.21 8.41184 169.034 8.68476C168.857 8.95768 168.769 9.29481 168.769 9.69616C168.769 10.0333 168.849 10.3223 169.01 10.5631C169.186 10.7878 169.403 10.9805 169.66 11.141C169.917 11.3016 170.198 11.438 170.503 11.5504C170.808 11.6467 171.089 11.727 171.345 11.7912L173.368 12.2487C173.802 12.313 174.227 12.4334 174.644 12.61C175.078 12.7705 175.455 12.9872 175.776 13.2602C176.113 13.5331 176.386 13.8702 176.595 14.2716C176.804 14.6729 176.908 15.1465 176.908 15.6923C176.908 16.3666 176.756 16.9445 176.451 17.4262C176.146 17.8917 175.752 18.277 175.271 18.5821C174.805 18.871 174.275 19.0797 173.681 19.2082C173.087 19.3366 172.501 19.4008 171.923 19.4008C170.462 19.4008 169.274 19.0556 168.359 18.3653C167.46 17.675 166.947 16.5673 166.818 15.0421H168.335C168.399 16.0696 168.769 16.8482 169.443 17.378C170.133 17.8917 170.984 18.1486 171.996 18.1486C172.365 18.1486 172.742 18.1085 173.127 18.0282C173.529 17.9479 173.898 17.8115 174.235 17.6188C174.572 17.4262 174.845 17.1854 175.054 16.8964C175.279 16.5914 175.391 16.2221 175.391 15.7887C175.391 15.4194 175.311 15.1144 175.15 14.8736C175.006 14.6167 174.805 14.408 174.548 14.2475C174.291 14.0709 173.994 13.9264 173.657 13.814C173.336 13.7016 173.007 13.6053 172.67 13.525L170.719 13.0916C170.222 12.9632 169.764 12.8187 169.347 12.6581C168.929 12.4815 168.56 12.2728 168.239 12.032C167.934 11.7752 167.693 11.4701 167.516 11.1169C167.34 10.7477 167.252 10.2982 167.252 9.7684C167.252 9.1423 167.388 8.60449 167.661 8.15498C167.95 7.70546 168.319 7.34425 168.769 7.07133C169.218 6.79841 169.716 6.59774 170.262 6.46931C170.824 6.34087 171.377 6.27666 171.923 6.27666C172.549 6.27666 173.127 6.35693 173.657 6.51747C174.203 6.67801 174.677 6.92684 175.078 7.26398C175.495 7.60111 175.824 8.01852 176.065 8.51619C176.306 9.01387 176.443 9.59984 176.475 10.2741H174.958Z" fill="#003778"/>
<path d="M162.804 6.63932H165.333V7.91561H162.804V16.2958C162.804 16.7935 162.869 17.1868 162.997 17.4758C163.142 17.7487 163.487 17.9012 164.033 17.9333C164.466 17.9333 164.899 17.9092 165.333 17.8611V19.1374C165.108 19.1374 164.883 19.1454 164.659 19.1614C164.434 19.1775 164.209 19.1855 163.984 19.1855C162.973 19.1855 162.267 18.9929 161.865 18.6076C161.464 18.2062 161.271 17.4758 161.287 16.4162V7.91561H159.12V6.63932H161.287V2.90676H162.804V6.63932Z" fill="#003778"/>
<path d="M147.432 1.87027H148.949V8.78152H148.997C149.286 8.02698 149.8 7.42496 150.539 6.97545C151.277 6.50988 152.088 6.2771 152.971 6.2771C153.838 6.2771 154.56 6.38948 155.138 6.61423C155.732 6.83899 156.206 7.16007 156.559 7.57747C156.912 7.97882 157.161 8.4765 157.305 9.07049C157.45 9.66449 157.522 10.3307 157.522 11.0692V19.0641H156.005V11.31C156.005 10.7802 155.957 10.2906 155.86 9.84109C155.764 9.37552 155.596 8.97417 155.355 8.63704C155.114 8.2999 154.785 8.03501 154.367 7.84236C153.966 7.64972 153.46 7.55339 152.85 7.55339C152.24 7.55339 151.694 7.66577 151.213 7.89053C150.747 8.09923 150.346 8.39623 150.009 8.78152C149.688 9.15077 149.431 9.60028 149.238 10.1301C149.062 10.6438 148.965 11.2057 148.949 11.8157V19.0641H147.432V1.87027Z" fill="#003778"/>
<path d="M144.578 18.0523C144.578 18.9674 144.474 19.7941 144.265 20.5326C144.072 21.2711 143.759 21.8972 143.326 22.4109C142.892 22.9247 142.322 23.318 141.616 23.5909C140.926 23.8638 140.075 24.0003 139.063 24.0003C138.437 24.0003 137.827 23.928 137.233 23.7836C136.639 23.6391 136.101 23.4143 135.62 23.1093C135.154 22.8043 134.761 22.4109 134.44 21.9293C134.135 21.4638 133.958 20.9019 133.91 20.2436H135.427C135.507 20.7092 135.66 21.0945 135.885 21.3995C136.126 21.7206 136.406 21.9775 136.728 22.1701C137.065 22.3628 137.434 22.4992 137.835 22.5795C138.237 22.6758 138.646 22.724 139.063 22.724C140.476 22.724 141.496 22.3226 142.122 21.5199C142.748 20.7172 143.061 19.5613 143.061 18.0523V16.3666H143.013C142.659 17.1372 142.138 17.7553 141.447 18.2208C140.773 18.6864 139.978 18.9192 139.063 18.9192C138.068 18.9192 137.217 18.7586 136.511 18.4376C135.804 18.1004 135.218 17.6429 134.753 17.065C134.303 16.487 133.974 15.8127 133.766 15.0421C133.557 14.2555 133.453 13.4207 133.453 12.5377C133.453 11.6869 133.573 10.8842 133.814 10.1296C134.071 9.35903 134.432 8.69278 134.897 8.13089C135.379 7.55295 135.965 7.10344 136.655 6.78236C137.362 6.44522 138.164 6.27666 139.063 6.27666C139.529 6.27666 139.962 6.34087 140.364 6.46931C140.781 6.59774 141.158 6.78236 141.496 7.02317C141.833 7.24792 142.13 7.51282 142.387 7.81784C142.659 8.12287 142.868 8.44395 143.013 8.78108H143.061V6.63787H144.578V18.0523ZM139.063 17.6429C139.722 17.6429 140.3 17.5064 140.797 17.2335C141.295 16.9445 141.712 16.5753 142.049 16.1258C142.387 15.6602 142.635 15.1304 142.796 14.5364C142.973 13.9424 143.061 13.3324 143.061 12.7063C143.061 12.0962 142.989 11.4862 142.844 10.8761C142.7 10.2661 142.467 9.71222 142.146 9.21454C141.825 8.71687 141.407 8.31552 140.894 8.01049C140.396 7.70546 139.786 7.55295 139.063 7.55295C138.341 7.55295 137.723 7.70546 137.209 8.01049C136.695 8.29946 136.27 8.68476 135.933 9.16638C135.596 9.648 135.347 10.2019 135.186 10.828C135.042 11.438 134.97 12.0641 134.97 12.7063C134.97 13.3324 135.05 13.9424 135.21 14.5364C135.371 15.1304 135.62 15.6602 135.957 16.1258C136.294 16.5753 136.72 16.9445 137.233 17.2335C137.747 17.5064 138.357 17.6429 139.063 17.6429Z" fill="#003778"/>
<path d="M129.661 1.87027H131.178V4.30245H129.661V1.87027ZM129.661 6.63831H131.178V19.0641H129.661V6.63831Z" fill="#003778"/>
<path d="M125.487 10.2741C125.471 9.80854 125.375 9.40719 125.198 9.07005C125.022 8.71687 124.781 8.42789 124.476 8.20314C124.187 7.97838 123.85 7.81784 123.464 7.72152C123.079 7.60914 122.67 7.55295 122.236 7.55295C121.899 7.55295 121.554 7.59309 121.201 7.67336C120.864 7.73757 120.551 7.85798 120.262 8.03457C119.973 8.19511 119.74 8.41184 119.563 8.68476C119.387 8.95768 119.298 9.29481 119.298 9.69616C119.298 10.0333 119.379 10.3223 119.539 10.5631C119.716 10.7878 119.933 10.9805 120.189 11.141C120.446 11.3016 120.727 11.438 121.032 11.5504C121.337 11.6467 121.618 11.727 121.875 11.7912L123.898 12.2487C124.331 12.313 124.757 12.4334 125.174 12.61C125.608 12.7705 125.985 12.9872 126.306 13.2602C126.643 13.5331 126.916 13.8702 127.125 14.2716C127.333 14.6729 127.438 15.1465 127.438 15.6923C127.438 16.3666 127.285 16.9445 126.98 17.4262C126.675 17.8917 126.282 18.277 125.8 18.5821C125.335 18.871 124.805 19.0797 124.211 19.2082C123.617 19.3366 123.031 19.4008 122.453 19.4008C120.992 19.4008 119.804 19.0556 118.889 18.3653C117.99 17.675 117.476 16.5673 117.348 15.0421H118.865C118.929 16.0696 119.298 16.8482 119.973 17.378C120.663 17.8917 121.514 18.1486 122.525 18.1486C122.895 18.1486 123.272 18.1085 123.657 18.0282C124.058 17.9479 124.428 17.8115 124.765 17.6188C125.102 17.4262 125.375 17.1854 125.584 16.8964C125.808 16.5914 125.921 16.2221 125.921 15.7887C125.921 15.4194 125.84 15.1144 125.68 14.8736C125.535 14.6167 125.335 14.408 125.078 14.2475C124.821 14.0709 124.524 13.9264 124.187 13.814C123.866 13.7016 123.537 13.6053 123.2 13.525L121.249 13.0916C120.751 12.9632 120.294 12.8187 119.876 12.6581C119.459 12.4815 119.09 12.2728 118.769 12.032C118.464 11.7752 118.223 11.4701 118.046 11.1169C117.87 10.7477 117.781 10.2982 117.781 9.7684C117.781 9.1423 117.918 8.60449 118.191 8.15498C118.48 7.70546 118.849 7.34425 119.298 7.07133C119.748 6.79841 120.246 6.59774 120.791 6.46931C121.353 6.34087 121.907 6.27666 122.453 6.27666C123.079 6.27666 123.657 6.35693 124.187 6.51747C124.733 6.67801 125.206 6.92684 125.608 7.26398C126.025 7.60111 126.354 8.01852 126.595 8.51619C126.836 9.01387 126.972 9.59984 127.004 10.2741H125.487Z" fill="#003778"/>
<path d="M105.087 6.63787H106.604V8.78108H106.652C106.941 8.02654 107.455 7.42452 108.194 6.97501C108.932 6.50944 109.743 6.27666 110.626 6.27666C111.493 6.27666 112.215 6.38904 112.793 6.61379C113.387 6.83855 113.861 7.15963 114.214 7.57703C114.567 7.97838 114.816 8.47606 114.96 9.07005C115.105 9.66405 115.177 10.3303 115.177 11.0688V19.0637H113.66V11.3096C113.66 10.7798 113.612 10.2902 113.515 9.84065C113.419 9.37508 113.251 8.97373 113.01 8.6366C112.769 8.29946 112.44 8.03457 112.022 7.84192C111.621 7.64927 111.115 7.55295 110.505 7.55295C109.895 7.55295 109.349 7.66533 108.868 7.89008C108.402 8.09879 108.001 8.39579 107.664 8.78108C107.343 9.15033 107.086 9.59984 106.893 10.1296C106.717 10.6433 106.62 11.2052 106.604 11.8153V19.0637H105.087V6.63787Z" fill="#003778"/>
<path d="M100.181 1.87027H101.818V19.0641H100.181V1.87027Z" fill="#003778"/>
<path fill-rule="evenodd" clip-rule="evenodd" d="M90.0549 20.0672V-0.000286102H90.5566V20.0672H90.0549Z" fill="#CCCCCC"/>
<path d="M200.423 6.78977L199.485 6.89205C199.459 6.79735 199.412 6.70833 199.346 6.625C199.281 6.54167 199.194 6.47443 199.084 6.4233C198.975 6.37216 198.84 6.34659 198.681 6.34659C198.467 6.34659 198.287 6.39299 198.141 6.4858C197.997 6.5786 197.926 6.69886 197.928 6.84659C197.926 6.97349 197.973 7.0767 198.067 7.15625C198.164 7.2358 198.323 7.30114 198.545 7.35227L199.289 7.51136C199.702 7.60038 200.009 7.74148 200.209 7.93466C200.412 8.12784 200.514 8.38068 200.516 8.69318C200.514 8.9678 200.434 9.21023 200.275 9.42045C200.118 9.62879 199.899 9.79167 199.619 9.90909C199.338 10.0265 199.016 10.0852 198.653 10.0852C198.119 10.0852 197.689 9.97349 197.363 9.75C197.037 9.52462 196.843 9.21117 196.781 8.80966L197.783 8.71307C197.829 8.91004 197.925 9.05871 198.073 9.15909C198.221 9.25947 198.413 9.30966 198.65 9.30966C198.894 9.30966 199.09 9.25947 199.238 9.15909C199.388 9.05871 199.462 8.93466 199.462 8.78693C199.462 8.66193 199.414 8.55871 199.317 8.47727C199.223 8.39583 199.075 8.33333 198.874 8.28977L198.13 8.13352C197.711 8.0464 197.402 7.89962 197.201 7.69318C197 7.48485 196.901 7.22159 196.903 6.90341C196.901 6.63447 196.974 6.40152 197.121 6.20455C197.271 6.00568 197.478 5.85227 197.744 5.74432C198.011 5.63447 198.318 5.57955 198.667 5.57955C199.178 5.57955 199.581 5.68845 199.874 5.90625C200.17 6.12405 200.352 6.41856 200.423 6.78977Z" fill="#94A3B8"/>
<path d="M194.26 10.0852C193.824 10.0852 193.45 9.98958 193.138 9.7983C192.827 9.60701 192.588 9.3428 192.419 9.00568C192.252 8.66667 192.169 8.27652 192.169 7.83523C192.169 7.39205 192.254 7.00095 192.425 6.66193C192.595 6.32102 192.836 6.05587 193.146 5.86648C193.459 5.67519 193.828 5.57955 194.254 5.57955C194.608 5.57955 194.922 5.64489 195.195 5.77557C195.469 5.90436 195.688 6.08712 195.851 6.32386C196.014 6.55871 196.107 6.83333 196.129 7.14773H195.146C195.107 6.9375 195.012 6.76231 194.862 6.62216C194.714 6.48011 194.517 6.40909 194.268 6.40909C194.058 6.40909 193.874 6.46591 193.714 6.57955C193.555 6.69129 193.431 6.85227 193.342 7.0625C193.255 7.27273 193.212 7.52462 193.212 7.81818C193.212 8.11553 193.255 8.37121 193.342 8.58523C193.429 8.79735 193.552 8.96117 193.709 9.0767C193.868 9.19034 194.054 9.24716 194.268 9.24716C194.42 9.24716 194.555 9.21875 194.675 9.16193C194.796 9.10322 194.897 9.01894 194.979 8.90909C195.06 8.79924 195.116 8.66572 195.146 8.50852H196.129C196.105 8.81724 196.014 9.09091 195.857 9.32955C195.699 9.56629 195.485 9.75189 195.214 9.88636C194.944 10.0189 194.625 10.0852 194.26 10.0852Z" fill="#94A3B8"/>
<path d="M189.393 10.0852C188.967 10.0852 188.597 9.99148 188.285 9.80398C187.972 9.61648 187.73 9.35417 187.558 9.01705C187.387 8.67992 187.302 8.28598 187.302 7.83523C187.302 7.38447 187.387 6.98958 187.558 6.65057C187.73 6.31155 187.972 6.0483 188.285 5.8608C188.597 5.6733 188.967 5.57955 189.393 5.57955C189.819 5.57955 190.188 5.6733 190.501 5.8608C190.813 6.0483 191.055 6.31155 191.225 6.65057C191.397 6.98958 191.484 7.38447 191.484 7.83523C191.484 8.28598 191.397 8.67992 191.225 9.01705C191.055 9.35417 190.813 9.61648 190.501 9.80398C190.188 9.99148 189.819 10.0852 189.393 10.0852ZM189.398 9.26136C189.63 9.26136 189.823 9.19792 189.978 9.07102C190.133 8.94223 190.249 8.76989 190.325 8.55398C190.402 8.33807 190.441 8.09754 190.441 7.83239C190.441 7.56534 190.402 7.32386 190.325 7.10795C190.249 6.89015 190.133 6.71686 189.978 6.58807C189.823 6.45928 189.63 6.39489 189.398 6.39489C189.162 6.39489 188.965 6.45928 188.808 6.58807C188.652 6.71686 188.536 6.89015 188.458 7.10795C188.382 7.32386 188.344 7.56534 188.344 7.83239C188.344 8.09754 188.382 8.33807 188.458 8.55398C188.536 8.76989 188.652 8.94223 188.808 9.07102C188.965 9.19792 189.162 9.26136 189.398 9.26136Z" fill="#94A3B8"/>
<path d="M183.71 10H181.738V4.18182H183.749C184.327 4.18182 184.823 4.2983 185.238 4.53125C185.655 4.76231 185.975 5.0947 186.198 5.52841C186.422 5.96212 186.533 6.48106 186.533 7.08523C186.533 7.69129 186.421 8.21212 186.195 8.64773C185.972 9.08333 185.649 9.41761 185.227 9.65057C184.806 9.88352 184.3 10 183.71 10ZM182.792 9.08807H183.658C184.064 9.08807 184.402 9.0142 184.673 8.86648C184.943 8.71686 185.147 8.49432 185.283 8.19886C185.42 7.90152 185.488 7.5303 185.488 7.08523C185.488 6.64015 185.42 6.27083 185.283 5.97727C185.147 5.68182 184.945 5.46117 184.678 5.31534C184.413 5.16761 184.084 5.09375 183.69 5.09375H182.792V9.08807Z" fill="#94A3B8"/>
</svg>
