<svg width="44" height="44" viewBox="0 0 44 44" fill="none" xmlns="http://www.w3.org/2000/svg">
<circle cx="22" cy="22" r="22" fill="#0A66C2"/>
<circle cx="22" cy="22" r="22" fill="black" fill-opacity="0.1"/>
<path d="M32.9981 33H28.443V25.8541C28.443 24.1501 28.4127 21.9565 26.0739 21.9565C23.7015 21.9565 23.3385 23.8131 23.3385 25.73V32.9995H18.7834V18.3047H23.1563V20.3129H23.2175C23.6551 19.5633 24.2875 18.9467 25.0473 18.5287C25.8071 18.1107 26.6658 17.9069 27.532 17.9391C32.1488 17.9391 33 20.9812 33 24.9386L32.9981 33ZM13.6438 16.296C13.121 16.2961 12.6099 16.1409 12.1752 15.85C11.7404 15.5591 11.4016 15.1456 11.2014 14.6618C11.0012 14.1779 10.9488 13.6455 11.0507 13.1319C11.1526 12.6182 11.4043 12.1463 11.7739 11.7759C12.1435 11.4055 12.6145 11.1532 13.1272 11.051C13.64 10.9487 14.1714 11.0011 14.6545 11.2014C15.1375 11.4017 15.5504 11.741 15.841 12.1764C16.1315 12.6119 16.2866 13.1238 16.2867 13.6475C16.2868 13.9953 16.2185 14.3396 16.0857 14.6609C15.9529 14.9822 15.7583 15.2741 15.5128 15.5201C15.2674 15.766 14.976 15.9611 14.6554 16.0942C14.3347 16.2274 13.991 16.2959 13.6438 16.296ZM15.9214 33H11.3616V18.3047H15.9214V33Z" fill="white"/>
</svg>
