<svg width="44" height="44" viewBox="0 0 44 44" fill="none" xmlns="http://www.w3.org/2000/svg">
<circle cx="22" cy="22" r="22" fill="#FF4500"/>
<path d="M24.797 15.1934C25.0353 16.2042 25.9426 16.9571 27.026 16.9571C28.2908 16.9571 29.3162 15.9313 29.3162 14.6661C29.3162 13.4008 28.2908 12.375 27.026 12.375C25.9201 12.375 24.9978 13.1591 24.783 14.202C22.9309 14.4008 21.4846 15.9722 21.4846 17.8765C21.4846 17.8808 21.4846 17.8841 21.4846 17.8883C19.4704 17.9732 17.6311 18.5468 16.1709 19.4522C15.6287 19.0323 14.948 18.782 14.2093 18.782C12.4366 18.782 11 20.2191 11 21.9925C11 23.2793 11.7559 24.3877 12.8478 24.9001C12.9541 28.6272 17.0138 31.625 22.0075 31.625C27.0013 31.625 31.0663 28.624 31.1672 24.8936C32.2506 24.3781 33 23.2728 33 21.9936C33 20.2202 31.5634 18.7831 29.7907 18.7831C29.0552 18.7831 28.3777 19.0312 27.8366 19.4479C26.3635 18.536 24.5039 17.9625 22.4692 17.8862C22.4692 17.883 22.4692 17.8808 22.4692 17.8776C22.4692 16.5135 23.4828 15.3814 24.797 15.1956V15.1934ZM16.0421 24.03C16.0958 22.8657 16.8688 21.9721 17.7675 21.9721C18.6662 21.9721 19.3533 22.9162 19.2997 24.0805C19.246 25.2449 18.5749 25.668 17.6752 25.668C16.7754 25.668 15.9884 25.1944 16.0421 24.03ZM26.2486 21.9721C27.1484 21.9721 27.9214 22.8657 27.974 24.03C28.0277 25.1944 27.2396 25.668 26.3409 25.668C25.4423 25.668 24.7701 25.2459 24.7164 24.0805C24.6628 22.9162 25.3489 21.9721 26.2486 21.9721ZM25.1792 26.7239C25.3478 26.7411 25.4551 26.9162 25.3897 27.073C24.8367 28.3952 23.5311 29.3243 22.0075 29.3243C20.4839 29.3243 19.1794 28.3952 18.6254 27.073C18.5599 26.9162 18.6673 26.7411 18.8358 26.7239C19.8236 26.624 20.8919 26.5692 22.0075 26.5692C23.1231 26.5692 24.1903 26.624 25.1792 26.7239Z" fill="white"/>
</svg>
