<svg xmlns="http://www.w3.org/2000/svg" width="117" height="24" viewBox="0 0 117 24" fill="none">
    <path d="M3.98569 16.0829V8.06519H0V20.0686H12.0034V16.0829H3.98569Z" fill="#0094FF"/>
    <path d="M19.9748 0.0466309H0V6.07151H3.98569V4.07867H15.9891V16.0821H13.9963V20.0678H19.9748V0.0466309Z" fill="#003778"/>
    <path d="M114.857 10.2743C114.841 9.80874 114.744 9.40739 114.568 9.07025C114.391 8.71706 114.15 8.42809 113.845 8.20334C113.556 7.97858 113.219 7.81804 112.834 7.72172C112.449 7.60934 112.039 7.55315 111.606 7.55315C111.269 7.55315 110.923 7.59328 110.57 7.67355C110.233 7.73777 109.92 7.85818 109.631 8.03477C109.342 8.19531 109.109 8.41204 108.933 8.68496C108.756 8.95787 108.668 9.29501 108.668 9.69636C108.668 10.0335 108.748 10.3225 108.909 10.5633C109.085 10.788 109.302 10.9807 109.559 11.1412C109.816 11.3018 110.097 11.4382 110.402 11.5506C110.707 11.6469 110.988 11.7272 111.245 11.7914L113.267 12.2489C113.701 12.3132 114.126 12.4336 114.544 12.6102C114.977 12.7707 115.354 12.9874 115.675 13.2603C116.013 13.5333 116.285 13.8704 116.494 14.2718C116.703 14.6731 116.807 15.1467 116.807 15.6925C116.807 16.3668 116.655 16.9447 116.35 17.4264C116.045 17.8919 115.651 18.2772 115.17 18.5823C114.704 18.8712 114.174 19.0799 113.58 19.2084C112.986 19.3368 112.4 19.401 111.822 19.401C110.362 19.401 109.174 19.0558 108.258 18.3655C107.359 17.6752 106.846 16.5675 106.717 15.0423H108.234C108.299 16.0698 108.668 16.8484 109.342 17.3782C110.032 17.8919 110.883 18.1488 111.895 18.1488C112.264 18.1488 112.641 18.1087 113.027 18.0284C113.428 17.9481 113.797 17.8117 114.134 17.619C114.471 17.4264 114.744 17.1856 114.953 16.8966C115.178 16.5916 115.29 16.2223 115.29 15.7889C115.29 15.4196 115.21 15.1146 115.049 14.8738C114.905 14.6169 114.704 14.4082 114.447 14.2477C114.19 14.0711 113.893 13.9266 113.556 13.8142C113.235 13.7018 112.906 13.6055 112.569 13.5252L110.618 13.0918C110.121 12.9633 109.663 12.8189 109.246 12.6583C108.828 12.4817 108.459 12.273 108.138 12.0322C107.833 11.7754 107.592 11.4703 107.416 11.1171C107.239 10.7479 107.151 10.2984 107.151 9.7686C107.151 9.1425 107.287 8.60469 107.56 8.15518C107.849 7.70566 108.218 7.34445 108.668 7.07153C109.117 6.79861 109.615 6.59794 110.161 6.4695C110.723 6.34107 111.277 6.27686 111.822 6.27686C112.449 6.27686 113.027 6.35713 113.556 6.51767C114.102 6.67821 114.576 6.92704 114.977 7.26418C115.394 7.60131 115.724 8.01872 115.964 8.51639C116.205 9.01406 116.342 9.60004 116.374 10.2743H114.857Z" fill="#003778"/>
    <path d="M102.703 6.63929H105.232V7.91559H102.703V16.2958C102.703 16.7935 102.768 17.1868 102.896 17.4758C103.041 17.7487 103.386 17.9012 103.932 17.9333C104.365 17.9333 104.798 17.9092 105.232 17.861V19.1373C105.007 19.1373 104.782 19.1454 104.558 19.1614C104.333 19.1775 104.108 19.1855 103.883 19.1855C102.872 19.1855 102.166 18.9929 101.764 18.6076C101.363 18.2062 101.17 17.4758 101.186 16.4162V7.91559H99.019V6.63929H101.186V2.90674H102.703V6.63929Z" fill="#003778"/>
    <path d="M87.3313 1.87036H88.8484V8.78161H88.8966C89.1855 8.02707 89.6993 7.42505 90.4377 6.97554C91.1762 6.50997 91.987 6.27719 92.8699 6.27719C93.7368 6.27719 94.4593 6.38957 95.0372 6.61432C95.6312 6.83908 96.1048 7.16016 96.458 7.57756C96.8112 7.97891 97.06 8.47659 97.2045 9.07058C97.349 9.66458 97.4212 10.3308 97.4212 11.0693V19.0642H95.9041V11.3101C95.9041 10.7803 95.856 10.2907 95.7597 9.84118C95.6633 9.37561 95.4948 8.97426 95.254 8.63713C95.0131 8.29999 94.684 8.0351 94.2666 7.84245C93.8653 7.64981 93.3596 7.55348 92.7495 7.55348C92.1395 7.55348 91.5936 7.66586 91.112 7.89061C90.6465 8.09932 90.2451 8.39632 89.908 8.78161C89.5869 9.15086 89.33 9.60037 89.1374 10.1301C88.9608 10.6439 88.8645 11.2058 88.8484 11.8158V19.0642H87.3313V1.87036Z" fill="#003778"/>
    <path d="M84.4772 18.0525C84.4772 18.9676 84.3729 19.7943 84.1642 20.5328C83.9715 21.2713 83.6585 21.8974 83.225 22.4111C82.7916 22.9249 82.2216 23.3182 81.5153 23.5911C80.8249 23.864 79.9741 24.0005 78.9627 24.0005C78.3366 24.0005 77.7265 23.9282 77.1325 23.7838C76.5385 23.6393 76.0007 23.4145 75.5191 23.1095C75.0535 22.8045 74.6602 22.4111 74.3391 21.9295C74.0341 21.4639 73.8575 20.9021 73.8093 20.2438H75.3264C75.4067 20.7094 75.5592 21.0947 75.784 21.3997C76.0248 21.7208 76.3057 21.9777 76.6268 22.1703C76.964 22.363 77.3332 22.4994 77.7346 22.5797C78.1359 22.676 78.5453 22.7242 78.9627 22.7242C80.3754 22.7242 81.3949 22.3228 82.021 21.5201C82.6471 20.7174 82.9601 19.5615 82.9601 18.0525V16.3668H82.912C82.5588 17.1374 82.037 17.7555 81.3467 18.221C80.6724 18.6866 79.8778 18.9194 78.9627 18.9194C77.9673 18.9194 77.1165 18.7588 76.4101 18.4378C75.7037 18.1006 75.1177 17.6431 74.6522 17.0651C74.2027 16.4872 73.8736 15.8129 73.6649 15.0423C73.4562 14.2557 73.3518 13.4209 73.3518 12.5379C73.3518 11.6871 73.4722 10.8844 73.713 10.1298C73.9699 9.35923 74.3311 8.69298 74.7967 8.13109C75.2783 7.55315 75.8643 7.10364 76.5546 6.78256C77.261 6.44542 78.0637 6.27686 78.9627 6.27686C79.4282 6.27686 79.8617 6.34107 80.2631 6.4695C80.6805 6.59794 81.0577 6.78256 81.3949 7.02337C81.732 7.24812 82.029 7.51301 82.2859 7.81804C82.5588 8.12307 82.7675 8.44415 82.912 8.78128H82.9601V6.63807H84.4772V18.0525ZM78.9627 17.6431C79.6209 17.6431 80.1988 17.5066 80.6965 17.2337C81.1942 16.9447 81.6116 16.5755 81.9487 16.126C82.2859 15.6604 82.5347 15.1306 82.6952 14.5366C82.8718 13.9426 82.9601 13.3326 82.9601 12.7065C82.9601 12.0964 82.8879 11.4864 82.7434 10.8763C82.5989 10.2663 82.3661 9.71241 82.045 9.21474C81.724 8.71706 81.3066 8.31571 80.7928 8.01069C80.2952 7.70566 79.6851 7.55315 78.9627 7.55315C78.2403 7.55315 77.6222 7.70566 77.1084 8.01069C76.5947 8.29966 76.1693 8.68496 75.8322 9.16658C75.495 9.6482 75.2462 10.2021 75.0856 10.8282C74.9412 11.4382 74.8689 12.0643 74.8689 12.7065C74.8689 13.3326 74.9492 13.9426 75.1097 14.5366C75.2703 15.1306 75.5191 15.6604 75.8562 16.126C76.1934 16.5755 76.6188 16.9447 77.1325 17.2337C77.6463 17.5066 78.2563 17.6431 78.9627 17.6431Z" fill="#003778"/>
    <path d="M69.5598 1.87036H71.0769V4.30254H69.5598V1.87036ZM69.5598 6.6384H71.0769V19.0642H69.5598V6.6384Z" fill="#003778"/>
    <path d="M65.3865 10.2743C65.3704 9.80874 65.2741 9.40739 65.0975 9.07025C64.9209 8.71706 64.6801 8.42809 64.375 8.20334C64.0861 7.97858 63.7489 7.81804 63.3636 7.72172C62.9784 7.60934 62.569 7.55315 62.1355 7.55315C61.7984 7.55315 61.4532 7.59328 61.1 7.67355C60.7629 7.73777 60.4498 7.85818 60.1609 8.03477C59.8719 8.19531 59.6391 8.41204 59.4625 8.68496C59.2859 8.95787 59.1976 9.29501 59.1976 9.69636C59.1976 10.0335 59.2779 10.3225 59.4384 10.5633C59.615 10.788 59.8318 10.9807 60.0886 11.1412C60.3455 11.3018 60.6264 11.4382 60.9315 11.5506C61.2365 11.6469 61.5174 11.7272 61.7743 11.7914L63.7971 12.2489C64.2306 12.3132 64.656 12.4336 65.0734 12.6102C65.5069 12.7707 65.8841 12.9874 66.2052 13.2603C66.5423 13.5333 66.8153 13.8704 67.024 14.2718C67.2327 14.6731 67.337 15.1467 67.337 15.6925C67.337 16.3668 67.1845 16.9447 66.8795 17.4264C66.5744 17.8919 66.1811 18.2772 65.6995 18.5823C65.2339 18.8712 64.7042 19.0799 64.1102 19.2084C63.5162 19.3368 62.9302 19.401 62.3522 19.401C60.8913 19.401 59.7033 19.0558 58.7883 18.3655C57.8892 17.6752 57.3755 16.5675 57.2471 15.0423H58.7642C58.8284 16.0698 59.1976 16.8484 59.8719 17.3782C60.5622 17.8919 61.4131 18.1488 62.4245 18.1488C62.7937 18.1488 63.171 18.1087 63.5563 18.0284C63.9576 17.9481 64.3269 17.8117 64.664 17.619C65.0012 17.4264 65.2741 17.1856 65.4828 16.8966C65.7075 16.5916 65.8199 16.2223 65.8199 15.7889C65.8199 15.4196 65.7396 15.1146 65.5791 14.8738C65.4346 14.6169 65.2339 14.4082 64.9771 14.2477C64.7202 14.0711 64.4232 13.9266 64.0861 13.8142C63.765 13.7018 63.4359 13.6055 63.0988 13.5252L61.1482 13.0918C60.6505 12.9633 60.193 12.8189 59.7756 12.6583C59.3582 12.4817 58.9889 12.273 58.6679 12.0322C58.3628 11.7754 58.122 11.4703 57.9454 11.1171C57.7688 10.7479 57.6805 10.2984 57.6805 9.7686C57.6805 9.1425 57.817 8.60469 58.0899 8.15518C58.3789 7.70566 58.7481 7.34445 59.1976 7.07153C59.6471 6.79861 60.1448 6.59794 60.6907 6.4695C61.2525 6.34107 61.8064 6.27686 62.3522 6.27686C62.9784 6.27686 63.5563 6.35713 64.0861 6.51767C64.6319 6.67821 65.1055 6.92704 65.5069 7.26418C65.9243 7.60131 66.2534 8.01872 66.4942 8.51639C66.735 9.01406 66.8714 9.60004 66.9036 10.2743H65.3865Z" fill="#003778"/>
    <path d="M44.9863 6.63807H46.5034V8.78128H46.5516C46.8406 8.02674 47.3543 7.42472 48.0928 6.9752C48.8313 6.50964 49.642 6.27686 50.525 6.27686C51.3919 6.27686 52.1143 6.38923 52.6923 6.61399C53.2863 6.83875 53.7598 7.15983 54.113 7.57723C54.4662 7.97858 54.7151 8.47625 54.8595 9.07025C55.004 9.66425 55.0763 10.3305 55.0763 11.069V19.0639H53.5592V11.3098C53.5592 10.78 53.511 10.2904 53.4147 9.84085C53.3184 9.37528 53.1498 8.97393 52.909 8.6368C52.6682 8.29966 52.3391 8.03477 51.9217 7.84212C51.5203 7.64947 51.0146 7.55315 50.4046 7.55315C49.7945 7.55315 49.2487 7.66553 48.767 7.89028C48.3015 8.09898 47.9001 8.39598 47.563 8.78128C47.2419 9.15052 46.9851 9.60004 46.7924 10.1298C46.6158 10.6435 46.5195 11.2054 46.5034 11.8155V19.0639H44.9863V6.63807Z" fill="#003778"/>
    <path d="M40.0798 1.87036H41.7173V19.0642H40.0798V1.87036Z" fill="#003778"/>
    <path fill-rule="evenodd" clip-rule="evenodd" d="M29.9541 20.0673V-0.000244141H30.4558V20.0673H29.9541Z" fill="#CCCCCC"/>
</svg>
