<svg width="199" height="24" viewBox="0 0 199 24" fill="none" xmlns="http://www.w3.org/2000/svg">
<path d="M3.98569 16.0828V8.06506H0V20.0685H12.0034V16.0828H3.98569Z" fill="#0094FF"/>
<path d="M19.9748 0.0465851H0V6.07147H3.98569V4.07862H15.9891V16.082H13.9963V20.0677H19.9748V0.0465851Z" fill="#003778"/>
<path d="M24.0112 -0.000289917H30.1751V14.9229H39.0734V20.0672H24.0112V-0.000289917Z" fill="#003778"/>
<path d="M43.0117 -0.000289917H58.5374V5.14403H49.222V7.64668H57.2397V12.4202H49.222V20.0672H43.0117V-0.000289917Z" fill="#003778"/>
<path d="M67.6645 9.40833L61.0835 0.0465851H68.3134L71.3258 5.46898L74.2919 0.0465851H81.1047L74.709 9.45467L81.8462 20.0214H74.431L71.0478 14.0892L67.5255 20.0677H60.481L67.6645 9.40833Z" fill="#0094FF"/>
<path d="M174.958 10.2741C174.941 9.80854 174.845 9.40719 174.669 9.07005C174.492 8.71687 174.251 8.42789 173.946 8.20314C173.657 7.97838 173.32 7.81784 172.935 7.72152C172.549 7.60914 172.14 7.55295 171.707 7.55295C171.369 7.55295 171.024 7.59309 170.671 7.67336C170.334 7.73757 170.021 7.85798 169.732 8.03457C169.443 8.19511 169.21 8.41184 169.034 8.68476C168.857 8.95768 168.769 9.29481 168.769 9.69616C168.769 10.0333 168.849 10.3223 169.01 10.5631C169.186 10.7878 169.403 10.9805 169.66 11.141C169.917 11.3016 170.198 11.438 170.503 11.5504C170.808 11.6467 171.089 11.727 171.345 11.7912L173.368 12.2487C173.802 12.313 174.227 12.4334 174.644 12.61C175.078 12.7705 175.455 12.9872 175.776 13.2602C176.113 13.5331 176.386 13.8702 176.595 14.2716C176.804 14.6729 176.908 15.1465 176.908 15.6923C176.908 16.3666 176.756 16.9445 176.451 17.4262C176.146 17.8917 175.752 18.277 175.271 18.5821C174.805 18.871 174.275 19.0797 173.681 19.2082C173.087 19.3366 172.501 19.4008 171.923 19.4008C170.462 19.4008 169.274 19.0556 168.359 18.3653C167.46 17.675 166.947 16.5673 166.818 15.0421H168.335C168.399 16.0696 168.769 16.8482 169.443 17.378C170.133 17.8917 170.984 18.1486 171.996 18.1486C172.365 18.1486 172.742 18.1085 173.127 18.0282C173.529 17.9479 173.898 17.8115 174.235 17.6188C174.572 17.4262 174.845 17.1854 175.054 16.8964C175.279 16.5914 175.391 16.2221 175.391 15.7887C175.391 15.4194 175.311 15.1144 175.15 14.8736C175.006 14.6167 174.805 14.408 174.548 14.2475C174.291 14.0709 173.994 13.9264 173.657 13.814C173.336 13.7016 173.007 13.6053 172.67 13.525L170.719 13.0916C170.222 12.9632 169.764 12.8187 169.347 12.6581C168.929 12.4815 168.56 12.2728 168.239 12.032C167.934 11.7752 167.693 11.4701 167.516 11.1169C167.34 10.7477 167.252 10.2982 167.252 9.7684C167.252 9.1423 167.388 8.60449 167.661 8.15498C167.95 7.70546 168.319 7.34425 168.769 7.07133C169.218 6.79841 169.716 6.59774 170.262 6.46931C170.824 6.34087 171.377 6.27666 171.923 6.27666C172.549 6.27666 173.127 6.35693 173.657 6.51747C174.203 6.67801 174.677 6.92684 175.078 7.26398C175.495 7.60111 175.824 8.01852 176.065 8.51619C176.306 9.01387 176.443 9.59984 176.475 10.2741H174.958Z" fill="#003778"/>
<path d="M162.804 6.63931H165.333V7.9156H162.804V16.2958C162.804 16.7935 162.869 17.1868 162.997 17.4758C163.142 17.7487 163.487 17.9012 164.033 17.9333C164.466 17.9333 164.899 17.9092 165.333 17.8611V19.1374C165.108 19.1374 164.883 19.1454 164.659 19.1614C164.434 19.1775 164.209 19.1855 163.984 19.1855C162.973 19.1855 162.267 18.9929 161.865 18.6076C161.464 18.2062 161.271 17.4758 161.287 16.4162V7.9156H159.12V6.63931H161.287V2.90675H162.804V6.63931Z" fill="#003778"/>
<path d="M147.432 1.87027H148.949V8.78152H148.997C149.286 8.02698 149.8 7.42496 150.539 6.97544C151.277 6.50988 152.088 6.2771 152.971 6.2771C153.838 6.2771 154.56 6.38947 155.138 6.61423C155.732 6.83899 156.206 7.16007 156.559 7.57747C156.912 7.97882 157.161 8.47649 157.305 9.07049C157.45 9.66449 157.522 10.3307 157.522 11.0692V19.0641H156.005V11.31C156.005 10.7802 155.957 10.2906 155.86 9.84109C155.764 9.37552 155.596 8.97417 155.355 8.63704C155.114 8.2999 154.785 8.03501 154.367 7.84236C153.966 7.64971 153.46 7.55339 152.85 7.55339C152.24 7.55339 151.694 7.66577 151.213 7.89052C150.747 8.09923 150.346 8.39622 150.009 8.78152C149.688 9.15076 149.431 9.60028 149.238 10.1301C149.062 10.6438 148.965 11.2057 148.949 11.8157V19.0641H147.432V1.87027Z" fill="#003778"/>
<path d="M144.578 18.0523C144.578 18.9674 144.474 19.7941 144.265 20.5326C144.072 21.2711 143.759 21.8972 143.326 22.4109C142.892 22.9247 142.322 23.318 141.616 23.5909C140.926 23.8638 140.075 24.0003 139.063 24.0003C138.437 24.0003 137.827 23.928 137.233 23.7836C136.639 23.6391 136.101 23.4143 135.62 23.1093C135.154 22.8043 134.761 22.4109 134.44 21.9293C134.135 21.4638 133.958 20.9019 133.91 20.2436H135.427C135.507 20.7092 135.66 21.0945 135.885 21.3995C136.126 21.7206 136.406 21.9775 136.728 22.1701C137.065 22.3628 137.434 22.4992 137.835 22.5795C138.237 22.6758 138.646 22.724 139.063 22.724C140.476 22.724 141.496 22.3226 142.122 21.5199C142.748 20.7172 143.061 19.5613 143.061 18.0523V16.3666H143.013C142.659 17.1372 142.138 17.7553 141.447 18.2208C140.773 18.6864 139.978 18.9192 139.063 18.9192C138.068 18.9192 137.217 18.7586 136.511 18.4376C135.804 18.1004 135.218 17.6429 134.753 17.065C134.303 16.487 133.974 15.8127 133.766 15.0421C133.557 14.2555 133.453 13.4207 133.453 12.5377C133.453 11.6869 133.573 10.8842 133.814 10.1296C134.071 9.35903 134.432 8.69278 134.897 8.13089C135.379 7.55295 135.965 7.10344 136.655 6.78236C137.362 6.44522 138.164 6.27666 139.063 6.27666C139.529 6.27666 139.962 6.34087 140.364 6.46931C140.781 6.59774 141.158 6.78236 141.496 7.02317C141.833 7.24792 142.13 7.51282 142.387 7.81784C142.659 8.12287 142.868 8.44395 143.013 8.78108H143.061V6.63787H144.578V18.0523ZM139.063 17.6429C139.722 17.6429 140.3 17.5064 140.797 17.2335C141.295 16.9445 141.712 16.5753 142.049 16.1258C142.387 15.6602 142.635 15.1304 142.796 14.5364C142.973 13.9424 143.061 13.3324 143.061 12.7063C143.061 12.0962 142.989 11.4862 142.844 10.8761C142.7 10.2661 142.467 9.71222 142.146 9.21454C141.825 8.71687 141.407 8.31552 140.894 8.01049C140.396 7.70546 139.786 7.55295 139.063 7.55295C138.341 7.55295 137.723 7.70546 137.209 8.01049C136.695 8.29946 136.27 8.68476 135.933 9.16638C135.596 9.648 135.347 10.2019 135.186 10.828C135.042 11.438 134.97 12.0641 134.97 12.7063C134.97 13.3324 135.05 13.9424 135.21 14.5364C135.371 15.1304 135.62 15.6602 135.957 16.1258C136.294 16.5753 136.72 16.9445 137.233 17.2335C137.747 17.5064 138.357 17.6429 139.063 17.6429Z" fill="#003778"/>
<path d="M129.661 1.87027H131.178V4.30245H129.661V1.87027ZM129.661 6.63831H131.178V19.0641H129.661V6.63831Z" fill="#003778"/>
<path d="M125.487 10.2741C125.471 9.80854 125.375 9.40719 125.198 9.07005C125.022 8.71687 124.781 8.42789 124.476 8.20314C124.187 7.97838 123.85 7.81784 123.464 7.72152C123.079 7.60914 122.67 7.55295 122.236 7.55295C121.899 7.55295 121.554 7.59309 121.201 7.67336C120.864 7.73757 120.551 7.85798 120.262 8.03457C119.973 8.19511 119.74 8.41184 119.563 8.68476C119.387 8.95768 119.298 9.29481 119.298 9.69616C119.298 10.0333 119.379 10.3223 119.539 10.5631C119.716 10.7878 119.933 10.9805 120.189 11.141C120.446 11.3016 120.727 11.438 121.032 11.5504C121.337 11.6467 121.618 11.727 121.875 11.7912L123.898 12.2487C124.331 12.313 124.757 12.4334 125.174 12.61C125.608 12.7705 125.985 12.9872 126.306 13.2602C126.643 13.5331 126.916 13.8702 127.125 14.2716C127.333 14.6729 127.438 15.1465 127.438 15.6923C127.438 16.3666 127.285 16.9445 126.98 17.4262C126.675 17.8917 126.282 18.277 125.8 18.5821C125.335 18.871 124.805 19.0797 124.211 19.2082C123.617 19.3366 123.031 19.4008 122.453 19.4008C120.992 19.4008 119.804 19.0556 118.889 18.3653C117.99 17.675 117.476 16.5673 117.348 15.0421H118.865C118.929 16.0696 119.298 16.8482 119.973 17.378C120.663 17.8917 121.514 18.1486 122.525 18.1486C122.895 18.1486 123.272 18.1085 123.657 18.0282C124.058 17.9479 124.428 17.8115 124.765 17.6188C125.102 17.4262 125.375 17.1854 125.584 16.8964C125.808 16.5914 125.921 16.2221 125.921 15.7887C125.921 15.4194 125.84 15.1144 125.68 14.8736C125.535 14.6167 125.335 14.408 125.078 14.2475C124.821 14.0709 124.524 13.9264 124.187 13.814C123.866 13.7016 123.537 13.6053 123.2 13.525L121.249 13.0916C120.751 12.9632 120.294 12.8187 119.876 12.6581C119.459 12.4815 119.09 12.2728 118.769 12.032C118.464 11.7752 118.223 11.4701 118.046 11.1169C117.87 10.7477 117.781 10.2982 117.781 9.7684C117.781 9.1423 117.918 8.60449 118.191 8.15498C118.48 7.70546 118.849 7.34425 119.298 7.07133C119.748 6.79841 120.246 6.59774 120.791 6.46931C121.353 6.34087 121.907 6.27666 122.453 6.27666C123.079 6.27666 123.657 6.35693 124.187 6.51747C124.733 6.67801 125.206 6.92684 125.608 7.26398C126.025 7.60111 126.354 8.01852 126.595 8.51619C126.836 9.01387 126.972 9.59984 127.004 10.2741H125.487Z" fill="#003778"/>
<path d="M105.087 6.63787H106.604V8.78108H106.652C106.941 8.02654 107.455 7.42452 108.194 6.97501C108.932 6.50944 109.743 6.27666 110.626 6.27666C111.493 6.27666 112.215 6.38904 112.793 6.61379C113.387 6.83855 113.861 7.15963 114.214 7.57703C114.567 7.97838 114.816 8.47606 114.96 9.07005C115.105 9.66405 115.177 10.3303 115.177 11.0688V19.0637H113.66V11.3096C113.66 10.7798 113.612 10.2902 113.515 9.84065C113.419 9.37508 113.251 8.97373 113.01 8.6366C112.769 8.29946 112.44 8.03457 112.022 7.84192C111.621 7.64927 111.115 7.55295 110.505 7.55295C109.895 7.55295 109.349 7.66533 108.868 7.89008C108.402 8.09879 108.001 8.39579 107.664 8.78108C107.343 9.15033 107.086 9.59984 106.893 10.1296C106.717 10.6433 106.62 11.2052 106.604 11.8153V19.0637H105.087V6.63787Z" fill="#003778"/>
<path d="M100.181 1.87027H101.818V19.0641H100.181V1.87027Z" fill="#003778"/>
<path fill-rule="evenodd" clip-rule="evenodd" d="M90.0549 20.0672V-0.000289917H90.5566V20.0672H90.0549Z" fill="#CCCCCC"/>
<path d="M196.063 11.5454C195.694 11.5454 195.377 11.4953 195.112 11.3949C194.846 11.2964 194.633 11.1638 194.472 10.9972C194.311 10.8305 194.2 10.6458 194.137 10.4432L195.063 10.2187C195.105 10.304 195.165 10.3883 195.245 10.4716C195.325 10.5568 195.432 10.6269 195.566 10.6818C195.702 10.7386 195.874 10.767 196.08 10.767C196.372 10.767 196.613 10.696 196.805 10.554C196.996 10.4138 197.092 10.1828 197.092 9.86079V9.03408H197.04C196.987 9.14014 196.91 9.24905 196.808 9.36079C196.707 9.47253 196.574 9.56628 196.407 9.64204C196.242 9.7178 196.035 9.75567 195.785 9.75567C195.45 9.75567 195.146 9.67708 194.873 9.51988C194.602 9.36079 194.386 9.12405 194.225 8.80965C194.066 8.49336 193.987 8.09753 193.987 7.62215C193.987 7.14299 194.066 6.73863 194.225 6.40908C194.386 6.07764 194.603 5.8267 194.876 5.65624C195.148 5.48389 195.452 5.39772 195.788 5.39772C196.043 5.39772 196.254 5.44128 196.418 5.5284C196.585 5.61363 196.718 5.71685 196.816 5.83806C196.915 5.95738 196.989 6.07007 197.04 6.17613H197.097V5.45454H198.112V9.8892C198.112 10.2623 198.022 10.571 197.844 10.8153C197.666 11.0597 197.423 11.2424 197.114 11.3636C196.806 11.4848 196.455 11.5454 196.063 11.5454ZM196.072 8.94886C196.29 8.94886 196.475 8.89583 196.629 8.78977C196.782 8.68371 196.898 8.53124 196.978 8.33238C197.058 8.13352 197.097 7.89488 197.097 7.61647C197.097 7.34185 197.058 7.10132 196.978 6.89488C196.9 6.68844 196.785 6.5284 196.631 6.41477C196.48 6.29924 196.293 6.24147 196.072 6.24147C195.843 6.24147 195.651 6.30113 195.498 6.42045C195.344 6.53977 195.229 6.70359 195.151 6.91192C195.074 7.11836 195.035 7.35321 195.035 7.61647C195.035 7.88352 195.074 8.11742 195.151 8.31817C195.231 8.51704 195.347 8.67234 195.501 8.78408C195.656 8.89393 195.846 8.94886 196.072 8.94886Z" fill="#94A3B8"/>
<path d="M191.202 9.9034C190.776 9.9034 190.406 9.80965 190.094 9.62215C189.781 9.43465 189.539 9.17234 189.366 8.83522C189.196 8.4981 189.111 8.10416 189.111 7.6534C189.111 7.20264 189.196 6.80776 189.366 6.46874C189.539 6.12973 189.781 5.86647 190.094 5.67897C190.406 5.49147 190.776 5.39772 191.202 5.39772C191.628 5.39772 191.997 5.49147 192.31 5.67897C192.622 5.86647 192.864 6.12973 193.034 6.46874C193.206 6.80776 193.293 7.20264 193.293 7.6534C193.293 8.10416 193.206 8.4981 193.034 8.83522C192.864 9.17234 192.622 9.43465 192.31 9.62215C191.997 9.80965 191.628 9.9034 191.202 9.9034ZM191.207 9.07954C191.438 9.07954 191.632 9.01609 191.787 8.8892C191.942 8.76041 192.058 8.58806 192.134 8.37215C192.211 8.15624 192.25 7.91571 192.25 7.65056C192.25 7.38352 192.211 7.14204 192.134 6.92613C192.058 6.70833 191.942 6.53503 191.787 6.40624C191.632 6.27746 191.438 6.21306 191.207 6.21306C190.971 6.21306 190.774 6.27746 190.616 6.40624C190.461 6.53503 190.345 6.70833 190.267 6.92613C190.191 7.14204 190.153 7.38352 190.153 7.65056C190.153 7.91571 190.191 8.15624 190.267 8.37215C190.345 8.58806 190.461 8.76041 190.616 8.8892C190.774 9.01609 190.971 9.07954 191.207 9.07954Z" fill="#94A3B8"/>
<path d="M188.241 4V9.81818H187.212V4H188.241Z" fill="#94A3B8"/>
<path d="M182 9.81818V4H184.227C184.648 4 184.997 4.06629 185.276 4.19886C185.556 4.32955 185.765 4.50852 185.903 4.7358C186.044 4.96307 186.114 5.22064 186.114 5.50852C186.114 5.74527 186.068 5.94792 185.977 6.11648C185.886 6.28314 185.764 6.41856 185.611 6.52273C185.457 6.62689 185.286 6.7017 185.097 6.74716V6.80398C185.303 6.81534 185.501 6.87879 185.69 6.99432C185.882 7.10795 186.038 7.26894 186.159 7.47727C186.28 7.68561 186.341 7.9375 186.341 8.23295C186.341 8.53409 186.268 8.80492 186.122 9.04545C185.976 9.28409 185.757 9.47254 185.463 9.6108C185.17 9.74905 184.8 9.81818 184.355 9.81818H182ZM183.054 8.9375H184.188C184.57 8.9375 184.846 8.86458 185.014 8.71875C185.185 8.57102 185.27 8.38163 185.27 8.15057C185.27 7.97822 185.227 7.82292 185.142 7.68466C185.057 7.54451 184.936 7.43466 184.778 7.35511C184.621 7.27367 184.434 7.23295 184.216 7.23295H183.054V8.9375ZM183.054 6.47443H184.097C184.278 6.47443 184.442 6.44129 184.588 6.375C184.734 6.30682 184.848 6.21117 184.932 6.08807C185.017 5.96307 185.06 5.81534 185.06 5.64489C185.06 5.41951 184.98 5.2339 184.821 5.08807C184.664 4.94223 184.43 4.86932 184.119 4.86932H183.054V6.47443Z" fill="#94A3B8"/>
</svg>
